<?xml version="1.0" encoding="UTF-8"?>
<svg width="32px" height="49px" viewBox="0 0 32 49" version="1.1" xmlns="http://www.w3.org/2000/svg" xmlns:xlink="http://www.w3.org/1999/xlink">
    <!-- Generator: Sketch 52.4 (67378) - http://www.bohemiancoding.com/sketch -->
    <title>Artboard 1 copy 2</title>
    <desc>Created with Sketch.</desc>
    <g id="Page-1" stroke="none" stroke-width="1" fill="none" fill-rule="evenodd">
        <g id="homepage" transform="translate(-89.000000, -688.000000)" fill="#3AAFC8">
            <g id="Artboard-1-copy-2" transform="translate(89.000000, 688.000000)">
                <path d="M28.0278743,5.49293209 C22.1774798,-1.22693014 12.0568378,-1.87042593 5.42278775,4.05564402 C-1.21126234,9.98171398 -1.84654073,20.2332675 4.00385375,26.9531298 C4.42805186,27.4337238 4.8784326,27.8899303 5.35288953,28.3196155 C7.03044697,29.8347861 7.7503987,31.2933149 7.7503987,33.2120591 L7.7503987,35.1166428 C7.74260143,36.1278722 8.54156444,36.9561378 9.53979331,36.9716648 C10.527609,36.9678165 11.3285275,36.1596948 11.3361777,35.1591242 L11.3361777,33.2545405 C11.3361777,30.2596004 10.1968366,27.8310791 7.73641906,25.6008045 C7.36928859,25.2651229 7.01934072,24.9106484 6.68794566,24.538769 C2.29544893,19.4915522 2.61252908,11.8339143 7.40684516,7.17700085 C12.2011612,2.52008746 19.7676584,2.52008746 24.5619745,7.17700085 C29.3562906,11.8339143 29.6733707,19.4915522 25.280874,24.538769 C24.9553118,24.9092844 24.6099636,25.2614634 24.2463802,25.5937243 C21.8209118,27.7815175 20.6815707,30.188798 20.6745808,33.148337 L20.6745808,35.1449637 C20.6667836,36.1561932 21.4657466,36.9844588 22.4639754,36.9999858 C23.4572418,37.0039156 24.2666473,36.193537 24.2743395,35.1874452 L24.2743395,33.1908184 C24.2743395,33.1908184 24.2743395,33.1908184 24.2743395,33.148337 C24.2743395,31.2295928 24.9733218,29.8277059 26.6368996,28.3196155 C27.1287528,27.8745473 27.5954794,27.4017835 28.0348641,26.9035681 C33.321712,20.7685866 33.321712,11.6208334 28.0348641,5.48585185 L28.0278743,5.49293209 Z" id="Path"></path>
                <path d="M22.1262669,40 L8.859375,40 C7.83247054,40 7,40.8954305 7,42 C7,43.1045695 7.83247054,44 8.859375,44 L22.140625,44 C23.1675295,44 24,43.1045695 24,42 C24,40.8954305 23.1675295,40 22.140625,40 L22.1262669,40 Z" id="Path"></path>
                <path d="M20.1231884,45 L12.8768116,45 C11.8402772,45 11,45.8954305 11,47 C11,48.1045695 11.8402772,49 12.8768116,49 L20.1231884,49 C21.1597228,49 22,48.1045695 22,47 C22,45.8954305 21.1597228,45 20.1231884,45 Z" id="Path"></path>
                <path d="M17.4429464,21.3721068 L12.282532,16.5875946 C11.8202581,16.1027296 11.105925,15.8958151 10.4281606,16.0504554 C9.75039609,16.2050958 9.22120943,16.6957347 9.05441954,17.3241285 C8.88762964,17.9525222 9.11080066,18.6148209 9.63375988,19.0434212 L14.2600894,23.3193698 L14.2600894,34.266869 C14.2600894,35.2240508 15.0970022,36 16.1293864,36 C17.1617706,36 17.9986833,35.2240508 17.9986833,34.266869 L17.9986833,22.7305068 C18.018186,22.2340392 17.8203544,21.7513527 17.4501638,21.3921817 L17.4429464,21.3721068 Z" id="Path"></path>
                <path d="M21.5419935,16.4493878 C20.9331205,15.8502041 19.9566439,15.8502041 19.3477709,16.4493878 L18.5264363,17.2713298 C18.0920372,17.6556042 17.9066589,18.2494078 18.0452039,18.8128131 C18.1837489,19.3762183 18.6233208,19.8161152 19.1863097,19.9547627 C19.7492986,20.0934101 20.3426635,19.9078947 20.726654,19.4731745 L21.5479886,18.6512325 C22.1506705,18.0411904 22.1506705,17.0594299 21.5479886,16.4493878 L21.5419935,16.4493878 Z" id="Path"></path>
            </g>
        </g>
    </g>
</svg>