<?xml version="1.0" encoding="utf-8"?>
<!-- Generator: Adobe Illustrator 13.0.0, SVG Export Plug-In . SVG Version: 6.00 Build 14948)  -->
<!DOCTYPE svg PUBLIC "-//W3C//DTD SVG 1.1//EN" "http://www.w3.org/Graphics/SVG/1.1/DTD/svg11.dtd">
<svg version="1.1" id="Layer_1" xmlns="http://www.w3.org/2000/svg" xmlns:xlink="http://www.w3.org/1999/xlink" x="0px" y="0px"
	 width="45.599px" height="45.6px" viewBox="0 0 45.599 45.6" enable-background="new 0 0 45.599 45.6" xml:space="preserve">
<rect fill-rule="evenodd" clip-rule="evenodd" fill="#FFFFFF" width="45.599" height="45.6"/>
<g>
	<g>
		<g>
			<g>
				<g>
					<path fill-rule="evenodd" clip-rule="evenodd" fill="#3AAFC8" d="M13.486,38.924c-1.396,0.017-2.759-0.402-3.891-1.195
						c-1.122-0.727-1.796-1.949-1.796-3.259s0.674-2.532,1.796-3.259c1.132-0.791,2.496-1.209,3.891-1.191
						c1.125-0.008,2.234,0.259,3.226,0.775V13.617c-0.001-0.521,0.346-0.984,0.857-1.142l18.622-5.747
						c0.119-0.037,0.243-0.055,0.369-0.054c0.262,0,0.519,0.081,0.732,0.229c0.317,0.226,0.506,0.585,0.507,0.967v20.805
						c-0.026,1.302-0.692,2.513-1.793,3.257c-2.336,1.593-5.449,1.593-7.785,0c-1.121-0.727-1.796-1.949-1.796-3.259
						s0.675-2.532,1.796-3.259c1.132-0.793,2.495-1.212,3.891-1.195c1.125-0.009,2.234,0.258,3.227,0.774v-9.411l-16.165,4.995
						v13.885c-0.026,1.302-0.693,2.513-1.793,3.257C16.249,38.517,14.883,38.938,13.486,38.924L13.486,38.924z M13.486,32.412
						c-1.72,0-3.227,0.963-3.227,2.06c0,1.098,1.507,2.061,3.227,2.061c1.719,0,3.226-0.945,3.226-2.061S15.2,32.412,13.486,32.412
						L13.486,32.412z M32.116,26.634c-1.719,0-3.227,0.963-3.227,2.061c0,1.097,1.508,2.06,3.227,2.06
						c1.72,0,3.227-0.963,3.227-2.06C35.342,27.597,33.835,26.634,32.116,26.634L32.116,26.634z M19.173,18.061l16.16-4.985V9.492
						l-16.16,4.999V18.061z"/>
					<path fill-rule="evenodd" clip-rule="evenodd" fill="#3AAFC8" d="M37.049,13.615V7.569c0.001-0.285-0.139-0.554-0.376-0.722
						c-0.237-0.168-0.543-0.216-0.822-0.129l-18.553,5.721c-0.381,0.119-0.64,0.463-0.639,0.852v17.635
						c-1.042-0.675-2.27-1.027-3.522-1.013c-1.317-0.014-2.604,0.382-3.674,1.128c-1.039,0.666-1.665,1.794-1.665,3.003
						s0.625,2.337,1.665,3.003c1.069,0.748,2.356,1.144,3.674,1.128c1.317,0.016,2.604-0.38,3.673-1.128
						c1.021-0.684,1.641-1.802,1.667-3.005V20l16.734-5.164v10.323c-2.206-1.389-5.059-1.341-7.214,0.12
						c-1.039,0.666-1.665,1.794-1.665,3.003s0.626,2.337,1.665,3.003c2.216,1.51,5.168,1.51,7.384,0
						c1.021-0.684,1.641-1.802,1.667-3.005V13.615L37.049,13.615z M13.138,36.399c-1.911,0-3.522-1.074-3.522-2.35
						s1.612-2.35,3.522-2.35s3.522,1.074,3.522,2.35S15.043,36.399,13.138,36.399L13.138,36.399z M18.497,18.119V13.94l16.716-5.159
						v4.187L18.497,18.119L18.497,18.119z M31.7,30.647c-1.91,0-3.522-1.074-3.522-2.35s1.612-2.35,3.522-2.35
						s3.522,1.074,3.522,2.35S33.605,30.647,31.7,30.647z"/>
				</g>
			</g>
		</g>
	</g>
</g>
</svg>
