<?xml version="1.0" encoding="utf-8"?>
<!-- Generator: Adobe Illustrator 13.0.0, SVG Export Plug-In . SVG Version: 6.00 Build 14948)  -->
<!DOCTYPE svg PUBLIC "-//W3C//DTD SVG 1.1//EN" "http://www.w3.org/Graphics/SVG/1.1/DTD/svg11.dtd">
<svg version="1.1" id="Layer_1" xmlns="http://www.w3.org/2000/svg" xmlns:xlink="http://www.w3.org/1999/xlink" x="0px" y="0px"
	 width="64.907px" height="64.907px" viewBox="0 0 64.907 64.907" enable-background="new 0 0 64.907 64.907" xml:space="preserve">
<g>
	<path fill="#969696" d="M32.453,0c8.96,0,17.074,3.633,22.947,9.507c5.873,5.873,9.507,13.987,9.507,22.947
		c0,8.959-3.634,17.074-9.507,22.947s-13.986,9.507-22.947,9.507c-8.96,0-17.074-3.634-22.947-9.507S0,41.413,0,32.454
		c0-8.96,3.633-17.074,9.506-22.947C15.379,3.633,23.493,0,32.453,0L32.453,0z M52.854,12.052C47.633,6.831,40.419,3.6,32.453,3.6
		s-15.18,3.23-20.401,8.452C6.831,17.274,3.6,24.488,3.6,32.454c0,7.965,3.23,15.18,8.452,20.401
		c5.221,5.222,12.435,8.452,20.401,8.452s15.18-3.23,20.401-8.452c5.222-5.221,8.452-12.436,8.452-20.401
		C61.306,24.488,58.076,17.274,52.854,12.052z"/>
	<path fill-rule="evenodd" clip-rule="evenodd" fill="#969696" d="M48.869,18.939c-1.011,0.647-3.333,1.588-4.479,1.588v0.002
		c-1.306-1.367-3.149-2.219-5.191-2.219c-3.967,0-7.183,3.216-7.183,7.181c0,0.551,0.064,1.088,0.182,1.604l-0.001,0
		c-5.379-0.141-11.265-2.838-14.807-7.454c-2.178,3.77-0.293,7.963,2.179,9.49c-0.846,0.064-2.402-0.097-3.136-0.813
		c-0.05,2.502,1.153,5.817,5.541,7.021c-0.845,0.453-2.341,0.322-2.99,0.227c0.228,2.11,3.186,4.874,6.421,4.874
		c-1.153,1.332-5.49,3.752-10.358,2.982c3.306,2.012,7.158,3.176,11.236,3.176c11.589,0,20.588-9.392,20.103-20.979
		c-0.001-0.012-0.001-0.025-0.002-0.04c0.001-0.03,0.002-0.06,0.002-0.091c0-0.036-0.002-0.07-0.004-0.104
		c1.055-0.721,2.471-1.997,3.481-3.677c-0.586,0.323-2.345,0.97-3.981,1.13C46.928,22.272,48.485,20.414,48.869,18.939
		L48.869,18.939z"/>
</g>
</svg>
