<?xml version="1.0" encoding="UTF-8"?>
<svg width="150px" height="62px" viewBox="0 0 150 62" version="1.1" xmlns="http://www.w3.org/2000/svg" xmlns:xlink="http://www.w3.org/1999/xlink">
    <!-- Generator: Sketch 52.5 (67469) - http://www.bohemiancoding.com/sketch -->
    <title>logo 2</title>
    <desc>Created with Sketch.</desc>
    <g id="Page-1" stroke="none" stroke-width="1" fill="none" fill-rule="evenodd">
        <g id="Artboard" transform="translate(-125.000000, -169.000000)" fill="#31B1CA">
            <g id="logo-2" transform="translate(125.000000, 169.000000)">
                <g id="logo">
                    <g id="Shape-2" transform="translate(97.500000, 0.000000)" fill-rule="nonzero">
                        <path d="M50.7076814,32.1563317 L10.6642959,10.2081254 L10.6642959,43.4103112 L7.06472262,45.5167498 L7.06472262,2.06224756 L50.7076814,27.8550725 L50.7076814,32.1563317 Z M34.188478,31.6555001 L38.3854908,34.0860062 L1.80725462,56.2698978 L1.92674253,4.595866 L5.28733997,2.88714659 L5.28733997,48.5953908 L34.188478,31.6555001 Z M32.4260313,30.6391067 L12.4416785,42.3497268 L12.4416785,19.031599 L32.4260313,30.6391067 Z M3.24110953,57.4630554 L41.8506401,34.0565455 L12.4566145,16.9988121 L12.4566145,13.1836541 L50.6927454,34.1449275 L6.73613087,59.9082918 L3.24110953,57.4630554 Z M52.5,35.1465906 L52.5,26.8534094 L7.06472262,0.0147303397 L7.06472262,0 L7.04978663,0 L0.149359886,3.5205512 L0.0149359886,57.3452126 L0,57.3452126 L6.64651494,62 L52.5,35.1465906 Z" id="Shape"></path>
                    </g>
                    <g id="Group" transform="translate(0.000000, 12.764706)">
                        <g>
                            <path d="M64.0614618,22.6016771 C64.0614618,22.6016771 64.0614618,22.6016771 64.0614618,22.6016771 L64.0614618,34.5880851 L62.3870432,34.5880851 L62.3870432,21.2452816 C62.3870432,20.7145181 62.2225914,20.5228536 61.7142857,20.5081101 L61.2807309,20.5081101 L61.2807309,18.9747935 L63.0299003,18.9747935 C63.5980066,18.9747935 64.0614618,19.4613267 64.0614618,20.021577 L64.0614618,20.5081101" id="Path"></path>
                            <path d="M65.9900332,34.5880851 L67.6644518,34.5880851 L67.6644518,24.6067835 L65.9900332,24.6067835 L65.9900332,34.5880851 Z M75.1843854,32.2733667 L75.1843854,20.021577 C75.1843854,19.4760701 74.7358804,18.9895369 74.1827243,18.9747935 L65.7209302,18.9747935 L65.7209302,20.6113141 L68.2026578,20.6113141 L72.8222591,20.6113141 C73.3604651,20.6260576 73.5249169,20.8177222 73.5249169,21.3484856 L73.5249169,33.5413016 C73.5249169,34.1015519 73.9883721,34.5880851 74.5415282,34.5880851 L76.9784053,34.5880851 L76.9784053,32.936821 L75.9169435,32.936821 C75.3936877,32.936821 75.1993355,32.7598999 75.1843854,32.2733667 Z" id="Shape" fill-rule="nonzero"></path>
                            <path d="M51.2491694,18.9747935 C50.6810631,18.9747935 50.1877076,19.4170964 50.1877076,19.9773467 L50.1877076,32.2438798 C50.1877076,32.7598999 49.9933555,32.9220776 49.4850498,32.936821 L47.0631229,32.936821 L47.0631229,34.5880851 L50.8305648,34.5880851 C51.3837209,34.5585982 51.8471761,34.1310388 51.8471761,33.5855319 L51.8471761,21.3042553 C51.8621262,20.7734919 52.0564784,20.6113141 52.6096346,20.6113141 L57.1694352,20.6113141 L59.6511628,20.6113141 L59.6511628,18.9747935 L51.2491694,18.9747935 Z M57.9916944,34.5880851 L59.666113,34.5880851 L59.666113,22.3362954 L57.9916944,22.3362954 L57.9916944,34.5880851 Z" id="Shape" fill-rule="nonzero"></path>
                            <path d="M31.6046512,18.9747935 L23.755814,18.9747935 C23.2026578,18.9895369 22.7093023,19.4318398 22.7093023,19.9773467 L22.7093023,34.5880851 L24.3837209,34.5880851 L24.3837209,21.3337422 C24.3837209,20.7882353 24.5780731,20.6113141 25.1461794,20.6113141 L30.2890365,20.6113141 C30.7973422,20.6260576 30.961794,20.8324656 30.961794,21.363229 L30.961794,34.5880851 L32.6362126,34.5880851 L32.6362126,20.0068335 C32.6212625,19.4613267 32.1727575,18.9747935 31.6046512,18.9747935" id="Path"></path>
                            <path d="M17.0730897,22.6016771 C17.0730897,22.6016771 17.0730897,22.6016771 17.0730897,22.6016771 L17.0730897,24.8574218 L15.3986711,24.8574218 L15.3986711,21.2452816 C15.3986711,20.7145181 15.2342193,20.5228536 14.7259136,20.5081101 L14.2923588,20.5081101 L14.2923588,18.9747935 L16.0415282,18.9747935 C16.6096346,18.9747935 17.0730897,19.4613267 17.0730897,20.021577 L17.0730897,20.5081101" id="Path"></path>
                            <path d="M21.0647841,22.6016771 C21.0647841,22.6016771 21.0647841,22.6016771 21.0647841,22.6016771 L21.0647841,24.8574218 L19.3903654,24.8574218 L19.3903654,21.2452816 C19.3903654,20.7145181 19.2259136,20.5228536 18.717608,20.5081101 L18.2840532,20.5081101 L18.2840532,18.9747935 L20.0332226,18.9747935 C20.6013289,18.9747935 21.0647841,19.4613267 21.0647841,20.021577 L21.0647841,20.5081101" id="Path"></path>
                            <path d="M12.7225914,20.5081101 L12.7225914,18.9747935 L10.4950166,18.9747935 C9.9269103,18.9747935 9.47840532,19.4613267 9.47840532,20.021577 L9.47840532,20.5081101 L9.25415282,20.4049061 C9.25415282,20.4049061 8.89534884,20.227985 8.32724252,20.021577 C7.75913621,19.8004255 6.98172757,19.5497872 6.12956811,19.3728661 C4.97840532,19.1369712 3.82724252,19.0337672 2.87043189,19.0337672 C1.92857143,19.0337672 1.16611296,19.1369712 0.747508306,19.3286358 C0.478405316,19.4465832 0.313953488,19.7561952 0.224252492,20.0658073 C0.134551495,20.3754193 0.134551495,20.6555444 0.134551495,20.6702879 L0.134551495,33.5855319 C0.149501661,34.1310388 0.627906977,34.5733417 1.19601329,34.5733417 L7.63953488,34.5733417 L7.63953488,32.9220776 L2.52657807,32.9220776 C2.00332226,32.9073342 1.82392027,32.730413 1.82392027,32.1996496 L1.82392027,21.2010513 C1.82392027,21.1863079 1.82392027,21.1125907 1.83887043,21.0241302 C1.8538206,20.9356696 1.86877076,20.8324656 1.95847176,20.7292616 C2.06312292,20.640801 2.16777409,20.6260576 2.25747508,20.6113141 C2.34717608,20.5965707 2.42192691,20.5965707 2.43687708,20.5965707 C2.45182724,20.5965707 4.589701,20.5965707 5.87541528,20.8619524 C7.02657807,21.0978473 8.41694352,21.3779725 9.16445183,21.9087359 C9.47840532,22.1298874 9.47840532,22.4837297 9.47840532,22.5721902 C9.47840532,22.5721902 9.47840532,22.5869337 9.47840532,22.5869337 L9.47840532,34.5733417 L11.1528239,34.5733417 L11.1528239,21.2305382 C11.1528239,20.6997747 11.3172757,20.5081101 11.8255814,20.4933667 L12.7225914,20.4933667 L12.7225914,20.5081101 Z" id="Path"></path>
                            <path d="M34.5348837,34.5880851 L36.2093023,34.5880851 L36.2093023,24.6067835 L34.5348837,24.6067835 L34.5348837,34.5880851 Z M43.744186,32.2733667 L43.744186,20.021577 C43.744186,19.4760701 43.2956811,18.9895369 42.7425249,18.9747935 L34.2807309,18.9747935 L34.2807309,20.6113141 L36.7624585,20.6113141 L41.3671096,20.6113141 C41.9053156,20.6260576 42.0697674,20.8177222 42.0697674,21.3484856 L42.0697674,33.5413016 C42.0697674,34.1015519 42.5332226,34.5880851 43.0863787,34.5880851 L45.5232558,34.5880851 L45.5232558,32.936821 L44.461794,32.936821 C43.9385382,32.9515645 43.7591362,32.7746433 43.744186,32.2733667 Z" id="Shape" fill-rule="nonzero"></path>
                            <path d="M76.9335548,20.5081101 L76.9335548,18.9747935 L79.1611296,18.9747935 C79.7292359,18.9747935 80.1777409,19.4613267 80.1777409,20.021577 L80.1777409,20.5081101 L80.4019934,20.4049061 C80.4019934,20.4049061 80.7607973,20.227985 81.3289037,20.021577 C81.89701,19.8004255 82.6744186,19.5497872 83.5265781,19.3728661 C84.6777409,19.1369712 85.8289037,19.0337672 86.7857143,19.0337672 C87.7275748,19.0337672 88.4900332,19.1369712 88.9086379,19.3286358 C89.1777409,19.4465832 89.3421927,19.7561952 89.4318937,20.0658073 C89.5215947,20.3754193 89.5215947,20.6555444 89.5215947,20.6702879 L89.5215947,33.5855319 C89.5066445,34.1310388 89.0282392,34.5733417 88.4601329,34.5733417 L82.0166113,34.5733417 L82.0166113,32.9220776 L87.1445183,32.9220776 C87.6677741,32.9073342 87.8471761,32.730413 87.8471761,32.1996496 L87.8471761,21.2010513 C87.8471761,21.1863079 87.8471761,21.1125907 87.8322259,21.0241302 C87.8172757,20.9356696 87.8023256,20.8324656 87.7126246,20.7292616 C87.6079734,20.640801 87.5033223,20.6260576 87.4136213,20.6113141 C87.3239203,20.5965707 87.2491694,20.5965707 87.2342193,20.5965707 C87.2192691,20.5965707 85.0813953,20.5965707 83.7956811,20.8619524 C82.6445183,21.0978473 81.2541528,21.3779725 80.5066445,21.9087359 C80.192691,22.1298874 80.192691,22.4837297 80.192691,22.5721902 C80.192691,22.5721902 80.192691,22.5869337 80.192691,22.5869337 L80.192691,34.5733417 L78.5182724,34.5733417 L78.5182724,21.2305382 C78.5182724,20.6997747 78.3538206,20.5081101 77.845515,20.4933667 L76.9335548,20.4933667 L76.9335548,20.5081101 Z" id="Path"></path>
                            <path d="M87.9817276,8.2563204 C87.9817276,11.9716646 85.2757475,14.8908636 81.807309,14.8908636 C78.3388704,14.8908636 75.6478405,11.9716646 75.6478405,8.2563204 C75.6478405,4.64418023 78.3538206,1.82818523 81.8222591,1.82818523 C85.2906977,1.82818523 87.9817276,4.64418023 87.9817276,8.2563204 M89.8803987,8.2563204 C89.8803987,3.65637046 86.3372093,0.0589737171 81.8222591,0.0589737171 C77.2923588,0.0589737171 73.7641196,3.65637046 73.7641196,8.2563204 C73.7641196,12.9742178 77.307309,16.6600751 81.8222591,16.6600751 C86.3372093,16.6600751 89.8803987,12.9594743 89.8803987,8.2563204" id="Shape" fill-rule="nonzero"></path>
                            <path d="M29.0780731,8.06465582 L25.0863787,8.06465582 L25.0265781,8.0056821 L25.0265781,2.04933667 L25.0863787,1.99036295 L29.0930233,1.99036295 C30.872093,1.99036295 31.948505,3.11086358 31.948505,4.99802253 C31.948505,6.88518148 30.8571429,8.06465582 29.0780731,8.06465582 M34.1910299,16.3799499 L35.013289,16.3799499 L35.013289,14.699199 L34.5647841,14.699199 C33.9817276,14.699199 33.7574751,14.6402253 33.5780731,14.2568961 L31.3504983,9.77489362 C31.2607973,9.59797247 31.1561462,9.45053817 31.0215947,9.31784731 L31.051495,9.2146433 C32.3372093,8.80182728 33.8471761,7.43068836 33.8471761,4.95379224 C33.8471761,2.18202753 31.9933555,0.324355444 29.2425249,0.324355444 L21.782392,0.324355444 L21.782392,2.00510638 L23.1578073,2.00510638 L23.217608,2.0640801 L23.217608,16.3946934 L25.0415282,16.3946934 L25.0415282,9.80438048 L25.1013289,9.74540676 L28.2408638,9.74540676 C29.0481728,9.74540676 29.2873754,9.83386733 29.6910299,10.6152691 L31.9335548,15.1267584 C32.4717608,16.2325156 32.9053156,16.3799499 34.1910299,16.3799499" id="Shape" fill-rule="nonzero"></path>
                            <path d="M46.0315615,9.62745932 L45.9717608,9.70117647 L41.2026578,9.70117647 L41.1428571,9.62745932 L43.0863787,4.26085106 C43.2059801,3.93649562 43.3554817,3.44996245 43.5199336,2.84548185 L43.6395349,2.84548185 C43.7292359,3.18458073 43.9086379,3.80380476 44.0730897,4.26085106 L46.0315615,9.62745932 Z M49.8737542,16.3799499 L50.7259136,16.3799499 L50.7259136,14.699199 L50.3222591,14.699199 C49.9186047,14.699199 49.7840532,14.6402253 49.6644518,14.3011264 L44.551495,0.41281602 L44.5215947,0.324355444 L42.6677741,0.324355444 L42.6378738,0.41281602 L37.5398671,14.3011264 C37.4202658,14.6402253 37.255814,14.699199 36.8820598,14.699199 L36.448505,14.699199 L36.448505,16.3799499 L37.3156146,16.3799499 C38.4817276,16.3799499 38.8405316,16.1145682 39.2591362,14.9793242 L40.589701,11.3819274 L40.6495017,11.3376971 L46.5548173,11.3376971 L46.6146179,11.3819274 L47.9152824,14.9793242 C48.3189369,16.1293116 48.692691,16.3799499 49.8737542,16.3799499 Z" id="Shape" fill-rule="nonzero"></path>
                            <path d="M66.4833887,8.34478098 C66.4833887,3.39098874 63.4335548,0.324355444 58.5299003,0.324355444 L52.1461794,0.324355444 L52.1461794,2.00510638 L53.5215947,2.00510638 L53.5813953,2.0640801 L53.5813953,13.6966458 L55.4053156,13.6966458 L55.4053156,2.0640801 L55.4651163,2.00510638 L58.3654485,2.00510638 C62.2524917,2.00510638 64.5847176,4.3787985 64.5847176,8.34478098 C64.5847176,12.3255069 62.2674419,14.7139424 58.3654485,14.7139424 L52.2657807,14.7139424 L52.2657807,16.3946934 L58.5149502,16.3946934 C63.448505,16.3799499 66.4833887,13.2985732 66.4833887,8.34478098" id="Path"></path>
                        </g>
                        <polygon id="Path" points="67.9186047 16.3799499 72.6428571 16.3799499 72.6428571 14.7139424 71.2225914 14.7139424 71.1627907 14.6549687 71.1627907 1.85767209 71.1777409 0.457046308 71.1777409 0.324355444 67.9186047 0.324355444 67.9186047 1.99036295 69.3239203 1.99036295 69.3837209 2.04933667 69.3837209 14.6549687 69.3239203 14.7139424 67.9186047 14.7139424"></polygon>
                    </g>
                </g>
            </g>
        </g>
    </g>
</svg>