<?xml version="1.0" encoding="UTF-8"?>
<svg width="50px" height="44px" viewBox="0 0 50 44" version="1.1" xmlns="http://www.w3.org/2000/svg" xmlns:xlink="http://www.w3.org/1999/xlink">
    <!-- Generator: Sketch 52.4 (67378) - http://www.bohemiancoding.com/sketch -->
    <title>VectorSmartObject_7533047e-2c72-46f3-b0c5-30d9844ee228-06 Copy 2</title>
    <desc>Created with Sketch.</desc>
    <g id="Page-1" stroke="none" stroke-width="1" fill="none" fill-rule="evenodd">
        <g id="homepage" transform="translate(-80.000000, -838.000000)" fill="#3AAFC8" fill-rule="nonzero">
            <g id="VectorSmartObject_7533047e-2c72-46f3-b0c5-30d9844ee228-06-Copy-2" transform="translate(80.000000, 838.000000)">
                <path d="M48.357386,9.46590241 C45.7863506,9.37872736 43.216887,9.6753173 40.7455888,10.3445226 C40.5729779,7.94729822 39.9931192,5.59113168 39.0278307,3.36467669 C38.8582389,2.97266294 38.5290501,2.65980128 38.112771,2.49500236 C37.696492,2.33020345 37.2272688,2.32698522 36.8084523,2.48605653 C34.540499,3.338701 32.4242876,4.50901526 30.532365,5.95687903 C29.3961478,3.93252081 27.9378395,2.08140004 26.2073476,0.466867335 C25.8879284,0.16794107 25.4546568,0 25.0028755,0 C24.5510942,0 24.1178226,0.16794107 23.7984034,0.466867335 C22.0663918,2.0777443 20.6069815,3.92625525 19.4704696,5.94869313 C17.5778981,4.49955951 15.4606645,3.32830379 13.1914659,2.47514199 C12.7715873,2.31677337 12.3015415,2.32161257 11.8854892,2.48858723 C11.4694368,2.65556189 11.1417359,2.97088309 10.9750039,3.36467669 C10.0100641,5.59028516 9.43021264,7.94550118 9.25724583,10.3417939 C6.78547077,9.6749655 4.21625993,9.37932573 1.64544856,9.46590241 C0.709970852,9.49703918 -0.0239931327,10.2275817 0.000600413534,11.1030828 C0.325966948,19.5006559 5.57442944,27.0459144 13.6493403,30.7246902 C12.0473159,32.9350081 11.1455211,35.523914 11.0479138,38.1929616 C11.0216883,39.0680072 11.7548105,39.7990079 12.6898456,39.830142 C12.861913,39.830142 13.0368969,39.830142 13.2293791,39.830142 C15.4727056,39.8303397 17.6880741,39.3643463 19.715447,38.465825 C20.8155249,40.3257576 22.1899992,42.0315221 23.7984034,43.5328984 C24.4645687,44.1557005 25.5440987,44.1557005 26.210264,43.5328984 C27.8186682,42.0315221 29.1931425,40.3257576 30.2932204,38.465825 C32.320784,39.3638282 34.5360264,39.829795 36.7792883,39.830142 C36.9717705,39.830142 37.1496708,39.830142 37.3188218,39.830142 C38.2550093,39.8004707 38.9898706,39.0690351 38.9636699,38.1929616 C38.8632265,35.5231226 37.9606107,32.9338158 36.3593271,30.7219616 C44.4298917,27.0469739 49.6754478,19.5063034 49.9993178,11.1139974 C50.0255433,10.2389518 49.2924212,9.50795104 48.357386,9.47681695 L48.357386,9.46590241 Z M37.3858989,11.5151066 C33.5827124,13.1661853 30.2960771,15.702878 27.8405302,18.8824185 C27.5937737,17.7774198 27.2594077,16.6911483 26.8402059,15.6326153 C28.7756935,11.51651 32.1769778,8.15580528 36.4643174,6.12332571 C37.0450525,7.87207656 37.3553905,9.6895696 37.3858989,11.5205638 L37.3858989,11.5151066 Z M25.0028755,3.9349612 C26.1849482,5.2433165 27.1755106,6.69314338 27.9484369,8.24620299 C26.8307534,9.39797636 25.842723,10.6543085 24.9999591,11.9953462 C24.1598688,10.6541973 23.1726833,9.39861114 22.0543977,8.24893163 C22.8287023,6.69512302 23.8202014,5.24444299 25.0028755,3.9349612 Z M13.5356008,6.11786844 C15.4968269,7.04181923 17.2869121,8.25418675 18.8376114,9.70875084 C22.7426082,13.3689446 24.9384991,18.3276453 24.9445476,23.4992673 L24.9445476,23.575669 C22.6097172,18.243751 18.2059053,13.9353375 12.6169357,11.5151066 C12.6478902,9.68435738 12.9572144,7.86705093 13.5356008,6.11786844 Z M3.54110688,12.6665901 C13.6541944,13.1571993 21.9280967,20.3758854 23.1567959,29.7805829 C13.0451912,29.2867036 4.77318934,22.0696754 3.54110688,12.6665901 Z M16.9127891,31.9525756 C18.5923062,32.4452873 20.3241495,32.7655134 22.0777289,32.9075975 C20.17316,34.946162 17.5331643,36.2574232 14.6613302,36.5912534 C15.0127377,34.9012607 15.7839823,33.3122663 16.9127891,31.9525756 Z M24.9999591,40.0811764 C24.0860616,39.0691142 23.2856853,37.9719032 22.6114296,36.8068155 C23.4913551,36.1568271 24.2923321,35.418399 24.9999591,34.6048078 C25.7050811,35.4187883 26.5052549,36.1564627 27.3855722,36.8040869 C26.7118698,37.9688439 25.9124989,39.0660163 24.9999591,40.0784477 L24.9999591,40.0811764 Z M35.3298388,36.5912534 C32.4571292,36.2575698 29.8161631,34.9463422 27.9105237,32.9075975 C29.6641453,32.7657924 31.3960208,32.4455604 33.0754636,31.9525756 C34.2051249,33.3121113 34.9773568,34.9010814 35.3298388,36.5912534 Z M26.8285403,29.7696683 C28.0493498,20.3596984 36.3289927,13.1359261 46.4471457,12.652947 C45.2161669,22.058074 36.9422393,29.2768599 26.8285403,29.7696683 Z" id="Shape"></path>
            </g>
        </g>
    </g>
</svg>