<?xml version="1.0" encoding="UTF-8"?>
<svg width="56px" height="30px" viewBox="0 0 56 30" version="1.1" xmlns="http://www.w3.org/2000/svg" xmlns:xlink="http://www.w3.org/1999/xlink">
    <!-- Generator: Sketch 52.4 (67378) - http://www.bohemiancoding.com/sketch -->
    <title>VectorSmartObject_7533047e-2c72-46f3-b0c5-30d9844ee228-02</title>
    <desc>Created with Sketch.</desc>
    <g id="Page-1" stroke="none" stroke-width="1" fill="none" fill-rule="evenodd">
        <g id="homepage" transform="translate(-77.000000, -558.000000)" fill="#3AAFC8">
            <g id="VectorSmartObject_7533047e-2c72-46f3-b0c5-30d9844ee228-02" transform="translate(77.000000, 558.000000)">
                <path d="M28.0033307,30 C21.7056945,30 14.9269189,27.5752066 8.40256774,22.9884298 C5.48341272,20.9590753 2.79589802,18.6248321 0.386936354,16.0264463 C-0.128978785,15.4410527 -0.128978785,14.571344 0.386936354,13.9859504 C2.79273031,11.382778 5.477724,9.04353597 8.39501058,7.00909091 C14.9193617,2.42479339 21.6981373,0 27.9957736,0 C34.2934098,0 41.0721854,2.42479339 47.5990556,7.00909091 C50.518596,9.04077716 53.2061254,11.377527 55.614687,13.9785124 C56.1284377,14.5646995 56.1284377,15.4328212 55.614687,16.0190083 C53.2061254,18.6199937 50.518596,20.9567435 47.5990556,22.9884298 C41.0721854,27.5752066 34.2934098,30 27.9957736,30 L28.0033307,30 Z M3.75491221,15 C5.77404457,17.0127991 7.96529735,18.8509756 10.3044539,20.4942149 C14.4634128,23.407438 20.9121923,26.8809917 28.0033307,26.8809917 C35.0944691,26.8809917 41.5432486,23.4099174 45.7022076,20.4942149 C48.0429824,18.8530167 50.2344081,17.0146952 52.2517492,15 C50.2339346,12.9850579 48.0425619,11.1459512 45.7022076,9.50330579 C41.5432486,6.59008264 35.0969882,3.11652893 28.0033307,3.11652893 C20.9096733,3.11652893 14.4634128,6.58760331 10.3044539,9.50330579 C7.96515014,11.1472755 5.7738894,12.9862882 3.75491221,15 Z" id="Shape" fill-rule="nonzero"></path>
                <path d="M28.5104776,23.9926951 C24.2865293,23.9978765 20.5666882,21.2134824 19.3820036,17.159804 C18.1973189,13.1061256 19.8324828,8.75730443 23.3946888,6.48781543 C26.9568948,4.21832643 31.5901074,4.57355169 34.7645726,7.35953668 C35.4014451,7.91695088 35.4657765,8.8850176 34.9082609,9.52177423 C34.3507453,10.1585309 33.3825024,10.2228506 32.7456299,9.66543641 C30.4689352,7.6705575 27.1088016,7.53380712 24.6774738,9.3370794 C22.246146,11.1403517 21.4023357,14.3950919 22.6513658,17.1521712 C23.900396,19.9092506 26.9038709,21.4217025 29.8631341,20.7837823 C32.8223974,20.1458622 34.9357054,17.5303995 34.9374856,14.5036864 C34.9150874,13.9423782 35.2018291,13.4138532 35.6846347,13.1265344 C36.1674402,12.8392157 36.7688229,12.8392157 37.2516284,13.1265344 C37.734434,13.4138532 38.0211757,13.9423782 37.9987774,14.5036864 C37.9987774,19.7483556 33.7463595,24 28.5007361,24 L28.5104776,23.9926951 Z" id="Path"></path>
                <path d="M28.000043,18 C26.7864572,17.9999996 25.6924138,17.2688254 25.2282176,16.1475258 C24.7640215,15.0262262 25.0211224,13.7357046 25.8795984,12.877911 C26.7380743,12.0201174 28.0287998,11.7640428 29.1497298,12.2291305 C30.2706599,12.6942182 31.0009637,13.7888428 30.999999,15.0024284 C30.9973699,16.6577822 29.6553982,17.9986873 28.000043,18 Z" id="Path"></path>
            </g>
        </g>
    </g>
</svg>