<?xml version="1.0" encoding="UTF-8"?>
<svg width="40px" height="43px" viewBox="0 0 40 43" version="1.1" xmlns="http://www.w3.org/2000/svg" xmlns:xlink="http://www.w3.org/1999/xlink">
    <!-- Generator: Sketch 52.4 (67378) - http://www.bohemiancoding.com/sketch -->
    <title>Artboard 1 copy 6</title>
    <desc>Created with Sketch.</desc>
    <g id="Page-1" stroke="none" stroke-width="1" fill="none" fill-rule="evenodd">
        <g id="homepage" transform="translate(-235.000000, -551.000000)" fill="#3AAFC8" fill-rule="nonzero">
            <g id="Artboard-1-copy-6" transform="translate(235.000000, 551.000000)">
                <path d="M7.58147529,42.9993699 C5.72136153,43.0214548 3.9031124,42.4624948 2.39451134,41.404811 C0.898679696,40.4370001 1.0234633e-15,38.8063892 0,37.0600859 C-1.0234633e-15,35.3137827 0.898679696,33.6831718 2.39451134,32.7153609 C3.90386534,31.6598 5.72205054,31.1029531 7.58147529,31.1267741 C9.08183908,31.115975 10.5610054,31.4712164 11.8834596,32.1599527 L11.8834596,9.25683171 C11.8818972,8.56125594 12.344499,7.94495461 13.0265583,7.73393839 L37.8551535,0.0716947726 C38.0142324,0.0232160147 38.1800941,-0.000960620446 38.3468089,2.92047827e-05 C38.6970796,0.00107579789 39.0384274,0.107472623 39.3239739,0.304607868 C39.7472081,0.605985271 39.9980873,1.08470825 40,1.59458809 L40,29.3351349 C39.9652318,31.0710694 39.0762298,32.6855992 37.6093259,33.6768739 C34.4946133,35.8012622 30.3439648,35.8012622 27.2292523,33.6768739 C25.7334206,32.709063 24.8347409,31.0784521 24.8347409,29.3321489 C24.8347409,27.5858456 25.7334206,25.9552348 27.2292523,24.9874238 C28.7378533,23.9297401 30.5561024,23.3707801 32.4162162,23.392865 C33.916611,23.3818105 35.3958413,23.7370673 36.7182005,24.4260436 L36.7182005,11.8785971 L15.1652591,18.5375227 L15.1652591,37.0511277 C15.1304909,38.7870622 14.2414889,40.401592 12.7745849,41.3928667 C11.2655999,42.4556368 9.44499834,43.018845 7.58147529,42.9993699 Z M7.58147529,34.3158919 C5.28913222,34.3158919 3.27949097,35.5999 3.27949097,37.063072 C3.27949097,38.526244 5.28913222,39.8102521 7.58147529,39.8102521 C9.87381836,39.8102521 11.8834596,38.5501325 11.8834596,37.063072 C11.8834596,35.5760115 9.86767267,34.3158919 7.58147529,34.3158919 Z M32.4223619,26.6118434 C30.1300188,26.6118434 28.1203776,27.8958515 28.1203776,29.3590235 C28.1203776,30.8221955 30.1300188,32.1062036 32.4223619,32.1062036 C34.714705,32.1062036 36.7243462,30.8221955 36.7243462,29.3590235 C36.7243462,27.8958515 34.714705,26.6118434 32.4223619,26.6118434 Z M15.1652591,15.1811853 L36.7120548,8.5342039 L36.7120548,3.75649938 L15.1652591,10.4213972 L15.1652591,15.1811853 Z" id="Shape"></path>
                <path d="M38.9999957,9.25376429 L38.9999957,1.19218263 C39.0010331,0.811900179 38.8146677,0.454077667 38.4985986,0.229497612 C38.1825295,0.00491755795 37.7748924,-0.0593230273 37.4018925,0.0566648617 L12.6649692,7.68425281 C12.1567633,7.84228029 11.8124598,8.30164358 11.8138721,8.81977058 L11.8138721,32.3327171 C10.4242844,31.4335836 8.78728269,30.9631743 7.11753046,30.983175 C5.36138115,30.9649859 3.6451669,31.491971 2.21912981,32.4872902 C0.833642325,33.3752761 1.3595793e-16,34.8794402 0,36.491328 C-1.3595793e-16,38.1032157 0.833642325,39.6073798 2.21912981,40.4953658 C3.64458243,41.4918162 5.36118941,42.0189219 7.11753046,41.9994809 C8.87387151,42.0189219 10.5904785,41.4918162 12.0159311,40.4953658 C13.376259,39.5834998 14.2030317,38.0929872 14.2385804,36.4883554 L14.2385804,17.767175 L36.5507954,10.882727 L36.5507954,24.6456779 C33.6093835,22.7939703 29.805702,22.8574431 26.9315611,24.8061962 C25.5460736,25.6941821 24.7124313,27.1983462 24.7124313,28.8102339 C24.7124313,30.4221217 25.5460736,31.9262858 26.9315611,32.8142717 C29.8862359,34.8267586 33.8226716,34.8267586 36.7773464,32.8142717 C38.1376743,31.9024058 38.964447,30.4118932 38.9999957,28.8072614 L38.9999957,9.25376429 Z M7.11753046,39.6333235 C4.57036213,39.6333235 2.42118884,38.2005497 2.42118884,36.5002456 C2.42118884,34.7999416 4.57036213,33.3671678 7.11753046,33.3671678 C9.6646988,33.3671678 11.8138721,34.7999416 11.8138721,36.5002456 C11.8138721,38.2005497 9.6585758,39.6333235 7.11753046,39.6333235 Z M14.2630724,15.2583347 L14.2630724,9.68775799 L36.5507954,2.80925506 L36.5507954,8.391722 L14.2630724,15.2583347 Z M31.8666997,31.9641197 C29.3195314,31.9641197 27.1703581,30.531346 27.1703581,28.8310419 C27.1703581,27.1307378 29.3195314,25.697964 31.8666997,25.697964 C34.4138681,25.697964 36.5630414,27.1307378 36.5630414,28.8310419 C36.5630414,30.531346 34.4077451,31.9641197 31.8666997,31.9641197 Z" id="Shape"></path>
            </g>
        </g>
    </g>
</svg>