<?xml version="1.0" encoding="UTF-8"?>
<svg width="61px" height="43px" viewBox="0 0 61 43" version="1.1" xmlns="http://www.w3.org/2000/svg" xmlns:xlink="http://www.w3.org/1999/xlink">
    <!-- Generator: Sketch 52.4 (67378) - http://www.bohemiancoding.com/sketch -->
    <title>Artboard 1 copy 3</title>
    <desc>Created with Sketch.</desc>
    <g id="Page-1" stroke="none" stroke-width="1" fill="none" fill-rule="evenodd">
        <g id="homepage" transform="translate(-225.000000, -840.000000)" fill="#3AAFC8" fill-rule="nonzero">
            <g id="Artboard-1-copy-3" transform="translate(225.000000, 840.000000)">
                <path d="M30.4972509,42.9989214 C30.2819578,43.003477 30.0682457,42.9611575 29.8708977,42.8748902 L6.5925858,33.2280264 C5.96629475,32.9723592 5.55777735,32.3616316 5.56013553,31.6845281 L5.56013553,18.8335273 L1.1137164,17.2900291 C0.617990303,17.1157224 0.233474427,16.7174805 0.0762936661,16.2155733 C-0.0808870945,15.7136662 0.00769510793,15.1669375 0.315288194,14.7405008 L5.89051962,7.28485311 C6.11499987,6.99692316 6.42262033,6.78520011 6.77154384,6.67847881 L30.0429728,0.0634864266 C30.339923,-0.0211621422 30.6545788,-0.0211621422 30.951529,0.0634864266 L54.243607,6.68536942 C54.5928771,6.78348322 54.8986031,6.99724235 55.1108652,7.29174373 L60.6860966,14.7405008 C60.9934394,15.167869 61.0810729,15.7154625 60.9224764,16.2175619 C60.7638799,16.7196612 60.377692,17.1172589 59.8807854,17.2900291 L55.4343663,18.7990742 L55.4343663,31.7052 C55.4367245,32.3823034 55.0282071,32.993031 54.401916,33.2486982 L31.1373701,42.8955621 C30.9328199,42.9716591 30.715327,43.0067774 30.4972509,42.9989214 Z M32.1629373,38.8645511 L52.1236424,30.5958106 L52.1236424,19.9635885 L37.9446588,24.7870205 C37.2836039,25.0117432 36.5527037,24.7999327 36.1137803,24.2564429 L32.1835863,19.433011 L32.1629373,38.8645511 Z M28.8315645,38.8645511 L28.8315645,19.3985579 L24.9013705,24.2219899 C24.4607247,24.7629844 23.7301177,24.9719602 23.070492,24.7456767 L8.89839139,19.9222448 L8.89839139,30.58892 L28.8315645,38.8645511 Z M23.04296,21.2521339 L27.5995072,15.6293904 L7.87970713,10.1926935 L4.34184422,14.898985 L23.04296,21.2521339 Z M37.9515418,21.2521339 L56.6526576,14.898985 L53.1147947,10.1926935 L33.3949946,15.6293904 L37.9515418,21.2521339 Z M30.4972509,12.9696122 L47.5670953,8.26332073 L30.4972509,3.43299817 L13.4274065,8.25643012 L30.4972509,12.9696122 Z" id="Shape"></path>
                <path d="M59.8100503,15.2360461 L54.2955397,7.87454725 C54.1768463,7.70903404 54.0028504,7.59106146 53.804755,7.54178577 L30.7583268,1.0359593 C30.5889963,0.988013567 30.4096068,0.988013567 30.2402763,1.0359593 L7.19384805,7.54178577 C6.99542574,7.60579788 6.82010215,7.72617871 6.68943051,7.88812935 L1.18855278,15.2360461 C1.00671224,15.4796486 0.952573522,15.7951198 1.04284927,16.0850734 C1.13312501,16.375027 1.35695959,16.6045963 1.64525514,16.702913 L6.49856982,18.3531383 L6.49856982,31.5413586 C6.49902729,31.9243524 6.73010551,32.2696781 7.0847848,32.4174041 L30.1312131,41.9248749 C30.2439558,41.9780586 30.3678105,42.0036685 30.4924851,41.9995765 C30.6166402,41.9983275 30.7393575,41.9729528 30.8537571,41.9248749 L53.9001854,32.4174041 C54.2548647,32.2696781 54.4859429,31.9243524 54.4864004,31.5413586 L54.4864004,18.3531383 L59.3601644,16.702913 C59.6472965,16.6030687 59.8694688,16.3728582 59.958338,16.0830973 C60.0472073,15.7933363 59.9921306,15.4787266 59.8100503,15.2360461 Z M3.47888105,15.2971655 L7.82777819,9.51119044 L9.58642312,9.99335503 L19.4839132,12.7097753 L28.8429034,15.2971655 L23.3556586,22.0338877 L3.47888105,15.2971655 Z M29.5449981,39.6091267 L8.40717672,30.9165819 L8.40717672,18.9982881 L23.4033738,24.0576208 C23.4924522,24.0945025 23.5867287,24.117411 23.6828483,24.1255313 C23.9691947,24.1246958 24.2398018,23.994889 24.4190253,23.7723967 L29.5518145,17.4703017 L29.5449981,39.6091267 Z M30.4993015,13.8031344 L10.9974289,8.4449955 L30.4993015,2.95782662 L50.0011742,8.4449955 L30.4993015,13.8031344 Z M52.5914264,30.9165819 L31.453605,39.6091267 L31.453605,17.4567196 L36.5863943,23.7588146 C36.8378281,24.0648098 37.2531281,24.1837974 37.6293116,24.0576208 L52.5914264,18.9982881 L52.5914264,30.9165819 Z M37.6429445,22.0882161 L32.1556997,15.2971655 L53.1708249,9.53156359 L57.519722,15.2971655 L37.6429445,22.0882161 Z" id="Shape"></path>
            </g>
        </g>
    </g>
</svg>