<?xml version="1.0" encoding="utf-8"?>
<!-- Generator: Adobe Illustrator 13.0.0, SVG Export Plug-In . SVG Version: 6.00 Build 14948)  -->
<!DOCTYPE svg PUBLIC "-//W3C//DTD SVG 1.1//EN" "http://www.w3.org/Graphics/SVG/1.1/DTD/svg11.dtd">
<svg version="1.1" id="Layer_1" xmlns="http://www.w3.org/2000/svg" xmlns:xlink="http://www.w3.org/1999/xlink" x="0px" y="0px"
	 width="45.599px" height="45.6px" viewBox="0 0 45.599 45.6" enable-background="new 0 0 45.599 45.6" xml:space="preserve">
<rect fill-rule="evenodd" clip-rule="evenodd" fill="#FFFFFF" width="45.599" height="45.6"/>
<g>
	<g>
		<g>
			<g>
				<g>
					<path fill="#3AAFC8" d="M6.877,38.55c-0.721-0.001-1.31-0.568-1.328-1.278V10.621c-0.004-0.348,0.135-0.684,0.385-0.929
						c0.25-0.247,0.59-0.383,0.943-0.379h6.081V8.41c0-0.468,0.252-0.9,0.664-1.134c0.411-0.234,0.917-0.234,1.327,0
						s0.664,0.666,0.664,1.134v0.902h14.582V8.41c-0.02-0.48,0.229-0.931,0.647-1.176c0.418-0.246,0.939-0.246,1.357,0
						c0.418,0.245,0.667,0.696,0.647,1.176v0.902h5.877c0.353-0.003,0.692,0.134,0.941,0.38s0.388,0.581,0.384,0.929v26.619
						c0.004,0.348-0.135,0.683-0.384,0.929s-0.589,0.383-0.941,0.38L6.877,38.55L6.877,38.55z M37.384,35.963V17.399H8.203v18.564
						H37.384L37.384,35.963z M37.413,14.784v-2.845h-4.576v0.524c0.02,0.479-0.229,0.931-0.647,1.176
						c-0.418,0.245-0.938,0.245-1.357,0c-0.418-0.245-0.667-0.697-0.647-1.176v-0.534H15.613v0.524c0,0.467-0.253,0.899-0.664,1.133
						c-0.411,0.234-0.917,0.234-1.327,0c-0.411-0.233-0.664-0.666-0.664-1.133v-0.524H8.203v2.845L37.413,14.784z"/>
					<path fill-rule="evenodd" clip-rule="evenodd" fill="#3AAFC8" d="M13.688,25.8c-0.767,0-1.389-0.672-1.389-1.5
						s0.622-1.5,1.389-1.5h18.222c0.767,0,1.389,0.672,1.389,1.5s-0.622,1.5-1.389,1.5H13.688z"/>
					<path fill-rule="evenodd" clip-rule="evenodd" fill="#3AAFC8" d="M32.064,22.8H14.285c-0.683,0-1.236,0.672-1.236,1.5
						s0.553,1.5,1.236,1.5h17.779c0.683,0,1.235-0.672,1.235-1.5S32.747,22.8,32.064,22.8z"/>
					<path fill-rule="evenodd" clip-rule="evenodd" fill="#3AAFC8" d="M22.995,28.05h-9.39c-0.721,0-1.305,0.672-1.305,1.5
						s0.584,1.5,1.305,1.5h9.39c0.721,0,1.305-0.672,1.305-1.5S23.715,28.05,22.995,28.05z"/>
				</g>
			</g>
		</g>
	</g>
</g>
</svg>
