<?xml version="1.0" encoding="utf-8"?>
<!-- Generator: Adobe Illustrator 13.0.0, SVG Export Plug-In . SVG Version: 6.00 Build 14948)  -->
<!DOCTYPE svg PUBLIC "-//W3C//DTD SVG 1.1//EN" "http://www.w3.org/Graphics/SVG/1.1/DTD/svg11.dtd">
<svg version="1.1" id="Layer_1" xmlns="http://www.w3.org/2000/svg" xmlns:xlink="http://www.w3.org/1999/xlink" x="0px" y="0px"
	 width="45.599px" height="45.6px" viewBox="0 0 45.599 45.6" enable-background="new 0 0 45.599 45.6" xml:space="preserve">
<rect fill-rule="evenodd" clip-rule="evenodd" fill="#FFFFFF" width="45.599" height="45.6"/>
<g>
	<g>
		<g>
			<g>
				<g>
					<path fill-rule="evenodd" clip-rule="evenodd" fill="#3AAFC8" d="M40.318,13.399c-1.929-0.066-3.855,0.157-5.709,0.659
						c-0.13-1.798-0.564-3.565-1.289-5.235c-0.127-0.294-0.373-0.529-0.686-0.652s-0.664-0.126-0.979-0.007
						c-1.701,0.64-3.288,1.518-4.707,2.604c-0.853-1.519-1.946-2.907-3.244-4.118c-0.239-0.224-0.564-0.35-0.903-0.35
						c-0.339,0-0.664,0.126-0.903,0.35c-1.299,1.208-2.394,2.595-3.246,4.111c-1.419-1.087-3.007-1.965-4.709-2.605
						c-0.314-0.119-0.667-0.115-0.979,0.01c-0.312,0.125-0.558,0.362-0.683,0.657c-0.724,1.669-1.159,3.436-1.289,5.233
						c-1.854-0.5-3.78-0.722-5.708-0.657c-0.702,0.023-1.252,0.571-1.234,1.228c0.244,6.298,4.18,11.957,10.237,14.716
						c-1.202,1.658-1.878,3.6-1.951,5.602c-0.02,0.656,0.53,1.204,1.231,1.229c0.129,0,0.26,0,0.405,0
						c1.682,0,3.344-0.35,4.864-1.023c0.825,1.395,1.856,2.674,3.063,3.8c0.5,0.467,1.309,0.467,1.809,0
						c1.206-1.126,2.236-2.405,3.062-3.8c1.521,0.673,3.183,1.022,4.865,1.023c0.144,0,0.277,0,0.404,0
						c0.702-0.022,1.253-0.571,1.233-1.229c-0.075-2.002-0.752-3.944-1.953-5.604c6.053-2.756,9.987-8.412,10.23-14.706
						c0.02-0.656-0.53-1.205-1.231-1.228V13.399L40.318,13.399z M32.088,14.936c-2.853,1.238-5.316,3.141-7.158,5.525
						c-0.186-0.829-0.437-1.643-0.751-2.437c1.452-3.087,4.003-5.608,7.219-7.132c0.436,1.312,0.668,2.675,0.69,4.048V14.936
						L32.088,14.936z M22.802,9.251c0.886,0.981,1.629,2.069,2.208,3.233c-0.838,0.864-1.579,1.806-2.211,2.812
						c-0.63-1.005-1.371-1.947-2.209-2.81C21.171,11.321,21.915,10.233,22.802,9.251L22.802,9.251z M14.201,10.888
						c1.471,0.693,2.813,1.602,3.977,2.693c2.929,2.746,4.576,6.464,4.58,10.343v0.058c-1.751-3.999-5.054-7.23-9.246-9.045
						C13.535,13.563,13.768,12.2,14.201,10.888L14.201,10.888z M6.705,15.799c7.585,0.368,13.791,5.782,14.712,12.835
						C13.833,28.265,7.629,22.852,6.705,15.799L6.705,15.799z M16.734,30.265c1.26,0.369,2.559,0.609,3.874,0.716
						c-1.429,1.528-3.409,2.513-5.563,2.763C15.309,32.476,15.887,31.284,16.734,30.265L16.734,30.265z M22.799,36.36
						c-0.686-0.759-1.286-1.582-1.792-2.456c0.66-0.487,1.261-1.041,1.792-1.651c0.529,0.611,1.129,1.164,1.789,1.649
						c-0.505,0.874-1.104,1.697-1.789,2.456V36.36L22.799,36.36z M30.546,33.743c-2.154-0.25-4.135-1.233-5.564-2.763
						c1.315-0.106,2.614-0.347,3.874-0.716C29.704,31.284,30.283,32.476,30.546,33.743L30.546,33.743z M24.17,28.627
						c0.916-7.058,7.126-12.476,14.715-12.837C37.961,22.843,31.756,28.257,24.17,28.627z"/>
				</g>
			</g>
		</g>
	</g>
</g>
</svg>
