<?xml version="1.0" encoding="utf-8"?>
<!-- Generator: Adobe Illustrator 13.0.0, SVG Export Plug-In . SVG Version: 6.00 Build 14948)  -->
<!DOCTYPE svg PUBLIC "-//W3C//DTD SVG 1.1//EN" "http://www.w3.org/Graphics/SVG/1.1/DTD/svg11.dtd">
<svg version="1.1" id="Layer_1" xmlns="http://www.w3.org/2000/svg" xmlns:xlink="http://www.w3.org/1999/xlink" x="0px" y="0px"
	 width="45.601px" height="45.6px" viewBox="0 0 45.601 45.6" enable-background="new 0 0 45.601 45.6" xml:space="preserve">
<rect x="0" fill-rule="evenodd" clip-rule="evenodd" fill="#FFFFFF" width="45.599" height="45.6"/>
<g>
	<path fill-rule="evenodd" clip-rule="evenodd" fill="#3AAFC8" d="M22.798,38.871c-0.161,0.004-0.321-0.028-0.468-0.093
		L4.928,31.567c-0.468-0.191-0.773-0.648-0.772-1.154v-9.606l-3.324-1.154c-0.371-0.13-0.658-0.428-0.775-0.803
		c-0.118-0.375-0.051-0.784,0.179-1.103l4.167-5.573c0.168-0.216,0.397-0.374,0.659-0.454l17.396-4.945
		c0.222-0.063,0.458-0.063,0.679,0l17.412,4.95c0.261,0.073,0.489,0.233,0.648,0.453l4.167,5.568
		c0.23,0.319,0.296,0.729,0.178,1.104c-0.119,0.375-0.408,0.672-0.779,0.801l-3.324,1.128v9.648
		c0.002,0.506-0.303,0.963-0.771,1.153l-17.392,7.212C23.124,38.851,22.961,38.877,22.798,38.871L22.798,38.871z M24.044,35.78
		L38.965,29.6v-7.949l-10.6,3.606c-0.494,0.168-1.04,0.01-1.368-0.396l-2.938-3.606L24.044,35.78L24.044,35.78z M21.553,35.78
		V21.229l-2.938,3.605c-0.33,0.405-0.875,0.562-1.369,0.393L6.652,21.621v7.973L21.553,35.78L21.553,35.78z M17.226,22.614
		l3.406-4.203L5.891,14.347l-2.645,3.518L17.226,22.614L17.226,22.614z M28.37,22.614l13.98-4.749l-2.645-3.518l-14.741,4.064
		L28.37,22.614L28.37,22.614z M22.798,16.423l12.76-3.518l-12.76-3.611L10.038,12.9L22.798,16.423z"/>
	<path fill-rule="evenodd" clip-rule="evenodd" fill="#3AAFC8" d="M44.711,18.117l-4.122-5.503
		c-0.089-0.124-0.219-0.212-0.367-0.249L22.993,7.502c-0.126-0.036-0.26-0.036-0.387,0L5.378,12.365
		C5.229,12.413,5.099,12.503,5,12.624l-4.112,5.493c-0.136,0.182-0.177,0.418-0.109,0.635c0.068,0.216,0.235,0.388,0.451,0.461
		l3.628,1.234v9.858c0,0.287,0.173,0.545,0.438,0.655l17.228,7.107c0.084,0.04,0.177,0.059,0.27,0.056
		c0.093-0.001,0.185-0.02,0.271-0.056l17.228-7.107c0.265-0.11,0.438-0.368,0.438-0.655v-9.858l3.643-1.234
		c0.215-0.074,0.382-0.247,0.447-0.463C44.888,18.534,44.847,18.299,44.711,18.117L44.711,18.117z M2.601,18.163l3.251-4.325
		l1.315,0.36l7.398,2.03l6.997,1.934l-4.102,5.037L2.601,18.163L2.601,18.163z M22.086,36.337L6.285,29.839V20.93l11.21,3.782
		c0.067,0.027,0.137,0.044,0.209,0.051c0.214-0.001,0.417-0.098,0.55-0.265l3.837-4.711L22.086,36.337L22.086,36.337z M22.8,17.046
		L8.221,13.041L22.8,8.938l14.578,4.102L22.8,17.046L22.8,17.046z M39.314,29.839l-15.802,6.498v-16.56l3.838,4.711
		c0.188,0.229,0.498,0.317,0.779,0.224l11.185-3.782V29.839L39.314,29.839z M28.14,23.239l-4.102-5.077l15.71-4.31l3.251,4.31
		L28.14,23.239z"/>
</g>
</svg>
