<?xml version="1.0" encoding="utf-8"?>
<!-- Generator: Adobe Illustrator 13.0.0, SVG Export Plug-In . SVG Version: 6.00 Build 14948)  -->
<!DOCTYPE svg PUBLIC "-//W3C//DTD SVG 1.1//EN" "http://www.w3.org/Graphics/SVG/1.1/DTD/svg11.dtd">
<svg version="1.1" id="Layer_1" xmlns="http://www.w3.org/2000/svg" xmlns:xlink="http://www.w3.org/1999/xlink" x="0px" y="0px"
	 width="45.599px" height="45.6px" viewBox="0 0 45.599 45.6" enable-background="new 0 0 45.599 45.6" xml:space="preserve">
<rect fill-rule="evenodd" clip-rule="evenodd" fill="#FFFFFF" width="45.599" height="45.6"/>
<g>
	<g>
		<g>
			<g>
				<path fill-rule="evenodd" clip-rule="evenodd" fill="#3AAFC8" d="M31.82,8.544c-4.388-5.04-11.979-5.523-16.954-1.078
					c-4.975,4.445-5.452,12.133-1.064,17.173c0.318,0.36,0.656,0.703,1.012,1.025c1.258,1.136,1.798,2.23,1.798,3.669v1.429
					c-0.006,0.758,0.593,1.38,1.342,1.392c0.741-0.003,1.342-0.609,1.347-1.36v-1.428c0-2.246-0.854-4.068-2.7-5.74
					c-0.275-0.252-0.538-0.518-0.786-0.797c-3.294-3.786-3.057-9.528,0.539-13.021c3.596-3.492,9.271-3.492,12.866,0
					c3.596,3.493,3.834,9.236,0.539,13.021c-0.244,0.278-0.503,0.542-0.775,0.791c-1.819,1.641-2.674,3.446-2.679,5.666v1.498
					c-0.006,0.758,0.593,1.379,1.342,1.391c0.745,0.003,1.352-0.604,1.357-1.359v-1.497c0,0,0,0,0-0.032
					c0-1.438,0.524-2.49,1.772-3.621c0.369-0.334,0.719-0.688,1.048-1.063c3.965-4.601,3.965-11.462,0-16.063L31.82,8.544z"/>
				<path fill-rule="evenodd" clip-rule="evenodd" fill="#3AAFC8" d="M27.393,34.424h-9.95c-0.77,0-1.395,0.672-1.395,1.5
					c0,0.829,0.625,1.5,1.395,1.5h9.961c0.77,0,1.395-0.671,1.395-1.5c0-0.828-0.625-1.5-1.395-1.5H27.393z"/>
				<path fill-rule="evenodd" clip-rule="evenodd" fill="#3AAFC8" d="M25.891,38.174h-5.435c-0.777,0-1.408,0.672-1.408,1.5
					c0,0.829,0.63,1.5,1.408,1.5h5.435c0.777,0,1.407-0.671,1.407-1.5C27.298,38.846,26.668,38.174,25.891,38.174z"/>
				<path fill-rule="evenodd" clip-rule="evenodd" fill="#3AAFC8" d="M23.881,20.453l-3.871-3.588
					c-0.347-0.364-0.882-0.519-1.391-0.403c-0.508,0.116-0.905,0.484-1.03,0.956c-0.125,0.471,0.042,0.968,0.435,1.289l3.469,3.207
					v8.21c0,0.718,0.628,1.3,1.402,1.3s1.401-0.582,1.401-1.3v-8.652c0.016-0.372-0.134-0.734-0.411-1.003L23.881,20.453z"/>
				<path fill-rule="evenodd" clip-rule="evenodd" fill="#3AAFC8" d="M26.956,16.761c-0.457-0.449-1.189-0.449-1.646,0l-0.616,0.616
					c-0.326,0.289-0.465,0.734-0.361,1.156c0.104,0.422,0.434,0.752,0.855,0.856c0.423,0.104,0.868-0.035,1.156-0.361l0.615-0.616
					c0.452-0.458,0.452-1.194,0-1.651H26.956z"/>
			</g>
		</g>
	</g>
</g>
</svg>
