<?xml version="1.0" encoding="utf-8"?>
<!-- Generator: Adobe Illustrator 13.0.0, SVG Export Plug-In . SVG Version: 6.00 Build 14948)  -->
<!DOCTYPE svg PUBLIC "-//W3C//DTD SVG 1.1//EN" "http://www.w3.org/Graphics/SVG/1.1/DTD/svg11.dtd">
<svg version="1.1" id="Layer_1" xmlns="http://www.w3.org/2000/svg" xmlns:xlink="http://www.w3.org/1999/xlink" x="0px" y="0px"
	 width="45.599px" height="45.6px" viewBox="0 0 45.599 45.6" enable-background="new 0 0 45.599 45.6" xml:space="preserve">
<rect fill-rule="evenodd" clip-rule="evenodd" fill="#FFFFFF" width="45.599" height="45.6"/>
<g>
	<g>
		<g>
			<g>
				<g>
					<path fill="#3AAFC8" d="M22.802,34.05c-4.723,0-9.807-1.818-14.701-5.259c-2.189-1.521-4.205-3.272-6.012-5.222
						c-0.387-0.438-0.387-1.091,0-1.53c1.805-1.952,3.818-3.707,6.006-5.232c4.894-3.438,9.978-5.257,14.701-5.257
						c4.724,0,9.808,1.818,14.702,5.257c2.19,1.523,4.206,3.276,6.012,5.227c0.386,0.439,0.386,1.09,0,1.53
						c-1.806,1.951-3.821,3.704-6.012,5.228c-4.895,3.44-9.979,5.259-14.702,5.259H22.802L22.802,34.05z M4.616,22.8
						c1.514,1.51,3.158,2.888,4.912,4.12c3.119,2.186,7.956,4.79,13.274,4.79s10.155-2.603,13.274-4.79
						c1.755-1.23,3.399-2.609,4.912-4.12c-1.514-1.511-3.157-2.891-4.912-4.123c-3.119-2.185-7.954-4.79-13.274-4.79
						s-10.155,2.603-13.274,4.79C7.773,19.91,6.13,21.29,4.616,22.8z"/>
					<path fill-rule="evenodd" clip-rule="evenodd" fill="#3AAFC8" d="M23.183,29.544c-3.168,0.004-5.958-2.084-6.847-5.125
						c-0.888-3.04,0.338-6.301,3.01-8.003c2.671-1.702,6.147-1.436,8.528,0.654c0.478,0.418,0.525,1.144,0.107,1.622
						c-0.418,0.477-1.145,0.525-1.622,0.107c-1.708-1.496-4.228-1.599-6.051-0.246c-1.823,1.352-2.456,3.793-1.52,5.861
						c0.937,2.067,3.189,3.202,5.409,2.724c2.22-0.479,3.805-2.44,3.806-4.71c-0.017-0.421,0.198-0.818,0.561-1.033
						s0.813-0.215,1.176,0s0.577,0.612,0.56,1.033c0,3.934-3.188,7.122-7.123,7.122L23.183,29.544z"/>
					<path fill-rule="evenodd" clip-rule="evenodd" fill="#3AAFC8" d="M22.8,25.05c-0.91,0-1.73-0.549-2.079-1.39
						c-0.348-0.841-0.155-1.809,0.489-2.452c0.644-0.643,1.612-0.835,2.452-0.486c0.841,0.349,1.389,1.169,1.388,2.08
						C25.047,24.043,24.042,25.049,22.8,25.05z"/>
				</g>
			</g>
		</g>
	</g>
</g>
</svg>
