<?xml version="1.0" encoding="utf-8"?>
<!-- Generator: Adobe Illustrator 13.0.0, SVG Export Plug-In . SVG Version: 6.00 Build 14948)  -->
<!DOCTYPE svg PUBLIC "-//W3C//DTD SVG 1.1//EN" "http://www.w3.org/Graphics/SVG/1.1/DTD/svg11.dtd">
<svg version="1.1" id="Layer_1" xmlns="http://www.w3.org/2000/svg" xmlns:xlink="http://www.w3.org/1999/xlink" x="0px" y="0px"
	 width="97.433px" height="81.99px" viewBox="0 0 97.433 81.99" enable-background="new 0 0 97.433 81.99" xml:space="preserve">
<g>
	<path fill="#3BB0C9" d="M34.404,35.735c-0.67-0.638-0.697-1.699-0.06-2.369c0.638-0.67,1.699-0.697,2.369-0.059l9.418,8.97
		l18.778-22.164c0.598-0.707,1.655-0.794,2.362-0.197c0.707,0.598,0.795,1.656,0.196,2.362l-19.926,23.52h-0.001
		c-0.021,0.024-0.042,0.049-0.065,0.072c-0.638,0.67-1.698,0.697-2.369,0.06L34.404,35.735z"/>
	<path fill="#3BB0C9" d="M56.754,66.89L37.944,81.636c-0.728,0.569-1.78,0.439-2.35-0.289c-0.239-0.306-0.354-0.669-0.354-1.03
		h-0.006V66.89h-1.789c-9.199,0-17.561-3.763-23.622-9.823C3.762,51.006,0,42.644,0,33.445c0-9.199,3.762-17.561,9.823-23.622
		C15.883,3.762,24.246,0,33.445,0h30.543c9.198,0,17.562,3.762,23.622,9.823c6.061,6.061,9.823,14.422,9.823,23.622
		c0,9.199-3.763,17.561-9.823,23.622c-6.061,6.062-14.424,9.823-23.622,9.823H56.754L56.754,66.89z M38.593,76.873l16.449-12.895
		c0.3-0.278,0.7-0.448,1.142-0.448h7.804c8.271,0,15.793-3.386,21.246-8.839c5.454-5.454,8.839-12.976,8.839-21.247
		c0-8.271-3.385-15.792-8.839-21.246c-5.453-5.454-12.975-8.839-21.246-8.839H33.445c-8.271,0-15.793,3.386-21.247,8.839
		S3.359,25.173,3.359,33.445c0,8.271,3.385,15.792,8.839,21.247c5.454,5.453,12.975,8.839,21.247,8.839h3.469
		c0.927,0,1.68,0.752,1.68,1.68V76.873z"/>
</g>
</svg>
