<?xml version="1.0" encoding="utf-8"?>
<!-- Generator: Adobe Illustrator 13.0.0, SVG Export Plug-In . SVG Version: 6.00 Build 14948)  -->
<!DOCTYPE svg PUBLIC "-//W3C//DTD SVG 1.1//EN" "http://www.w3.org/Graphics/SVG/1.1/DTD/svg11.dtd">
<svg version="1.1" id="Layer_1" xmlns="http://www.w3.org/2000/svg" xmlns:xlink="http://www.w3.org/1999/xlink" x="0px" y="0px"
	 width="18.298px" height="18.304px" viewBox="0 0 18.298 18.304" enable-background="new 0 0 18.298 18.304" xml:space="preserve">
<path fill="#1D1F1C" d="M0.257,1.527c-0.343-0.344-0.343-0.914,0-1.27c0.355-0.343,0.915-0.343,1.269,0l7.618,7.629l7.632-7.629
	c0.344-0.343,0.914-0.343,1.259,0c0.351,0.356,0.351,0.926,0,1.27l-7.622,7.617l7.622,7.633c0.351,0.344,0.351,0.914,0,1.27
	c-0.345,0.344-0.919,0.344-1.259,0l-7.632-7.633l-7.618,7.633c-0.354,0.344-0.914,0.344-1.269,0c-0.343-0.355-0.343-0.926,0-1.27
	l7.617-7.633L0.257,1.527z"/>
</svg>
