<?xml version="1.0" encoding="utf-8"?>
<!-- Generator: Adobe Illustrator 13.0.0, SVG Export Plug-In . SVG Version: 6.00 Build 14948)  -->
<!DOCTYPE svg PUBLIC "-//W3C//DTD SVG 1.1//EN" "http://www.w3.org/Graphics/SVG/1.1/DTD/svg11.dtd">
<svg version="1.1" id="Layer_1" xmlns="http://www.w3.org/2000/svg" xmlns:xlink="http://www.w3.org/1999/xlink" x="0px" y="0px"
	 width="64.907px" height="64.907px" viewBox="0 0 64.907 64.907" enable-background="new 0 0 64.907 64.907" xml:space="preserve">
<g>
	<path fill="#969696" d="M32.453,0c8.96,0,17.074,3.633,22.947,9.507c5.873,5.873,9.507,13.987,9.507,22.947
		c0,8.959-3.634,17.074-9.507,22.947s-13.986,9.507-22.947,9.507c-8.96,0-17.074-3.634-22.947-9.507S0,41.413,0,32.454
		c0-8.96,3.633-17.074,9.506-22.947C15.379,3.633,23.493,0,32.453,0L32.453,0z M52.854,12.052C47.633,6.831,40.419,3.6,32.453,3.6
		s-15.18,3.23-20.401,8.452C6.831,17.274,3.6,24.488,3.6,32.454c0,7.965,3.23,15.18,8.452,20.401
		c5.221,5.222,12.435,8.452,20.401,8.452s15.18-3.23,20.401-8.452c5.222-5.221,8.452-12.436,8.452-20.401
		C61.306,24.488,58.076,17.274,52.854,12.052z"/>
	<path fill-rule="evenodd" clip-rule="evenodd" fill="#969696" d="M28.046,49.776h6.304V32.461h4.728l0.936-5.41H34.35v-3.918
		c0-1.264,0.817-2.591,1.984-2.591h3.218v-5.411H35.61v0.024c-6.174,0.224-7.443,3.799-7.551,7.554h-0.011v4.343l-3.154,0v5.41
		h3.153V49.776z"/>
</g>
</svg>
