<?xml version="1.0" encoding="utf-8"?>
<!-- Generator: Adobe Illustrator 13.0.0, SVG Export Plug-In . SVG Version: 6.00 Build 14948)  -->
<!DOCTYPE svg PUBLIC "-//W3C//DTD SVG 1.1//EN" "http://www.w3.org/Graphics/SVG/1.1/DTD/svg11.dtd">
<svg version="1.1" id="Layer_1" xmlns="http://www.w3.org/2000/svg" xmlns:xlink="http://www.w3.org/1999/xlink" x="0px" y="0px"
	 width="62.407px" height="38.501px" viewBox="0 0 62.407 38.501" enable-background="new 0 0 62.407 38.501" xml:space="preserve">
<g>
	<path fill="#3BB0C9" d="M3.121,35.38h56.165V3.12H3.121V35.38L3.121,35.38z M60.846,38.501H1.56C0.699,38.501,0,37.802,0,36.94
		V1.56C0,0.699,0.699,0,1.56,0h59.286c0.861,0,1.561,0.699,1.561,1.56v35.38C62.407,37.802,61.708,38.501,60.846,38.501z"/>
	<path fill="#3BB0C9" d="M2.401,0.25l28.802,18.582L60.005,0.25c0.724-0.464,1.687-0.254,2.151,0.469
		c0.464,0.723,0.254,1.687-0.47,2.151L32.075,21.975c-0.5,0.338-1.173,0.366-1.712,0.021L0.719,2.87L2.401,0.25z"/>
</g>
</svg>
