<?xml version="1.0" encoding="utf-8"?>
<!-- Generator: Adobe Illustrator 13.0.0, SVG Export Plug-In . SVG Version: 6.00 Build 14948)  -->
<!DOCTYPE svg PUBLIC "-//W3C//DTD SVG 1.1//EN" "http://www.w3.org/Graphics/SVG/1.1/DTD/svg11.dtd">
<svg version="1.1" id="Layer_1" xmlns="http://www.w3.org/2000/svg" xmlns:xlink="http://www.w3.org/1999/xlink" x="0px" y="0px"
	 width="45.6px" height="65.84px" viewBox="0 0 45.6 65.84" enable-background="new 0 0 45.6 65.84" xml:space="preserve">
<g>
	<path fill="#3BB0C9" d="M27.319,22.804c0-1.247-0.506-2.376-1.323-3.193c-0.022-0.023-0.044-0.047-0.065-0.071
		c-0.812-0.776-1.913-1.252-3.127-1.252c-1.247,0-2.376,0.506-3.193,1.323c-0.817,0.817-1.323,1.946-1.323,3.193
		c0,1.25,0.504,2.379,1.32,3.196l0.003-0.003c0.817,0.817,1.946,1.323,3.193,1.323c1.25,0,2.379-0.504,3.196-1.32
		C26.814,25.183,27.319,24.053,27.319,22.804L27.319,22.804z M28.195,17.412c1.38,1.38,2.233,3.288,2.233,5.392
		c0,2.101-0.854,4.006-2.233,5.386l-0.006,0.006c-1.381,1.38-3.285,2.234-5.386,2.234c-2.105,0-4.012-0.854-5.392-2.234l0.003-0.003
		l-0.003-0.003c-1.38-1.38-2.234-3.285-2.234-5.386c0-2.104,0.854-4.012,2.234-5.392c1.38-1.38,3.287-2.233,5.392-2.233
		c2.056,0,3.925,0.818,5.298,2.148C28.134,17.353,28.165,17.382,28.195,17.412z"/>
	<path fill="#3BB0C9" d="M42.503,23.553c-0.024-5.664-2.244-10.79-5.825-14.496c-3.551-3.675-8.45-5.948-13.875-5.948
		c-5.432,0-10.35,2.278-13.908,5.961c-3.575,3.7-5.786,8.818-5.786,14.476c0,12.975,15.248,32.825,19.663,38.301
		C27.21,56.38,42.561,36.523,42.503,23.553L42.503,23.553z M38.913,6.908c4.111,4.255,6.659,10.137,6.687,16.633
		c0.071,15.949-20.655,40.579-21.61,41.706c-0.065,0.084-0.141,0.162-0.226,0.232c-0.658,0.55-1.637,0.463-2.187-0.194
		C21.516,65.211,0,39.837,0,23.547C0,17.059,2.545,11.18,6.66,6.921C10.792,2.645,16.499,0,22.803,0
		C29.101,0,34.789,2.64,38.913,6.908z"/>
</g>
</svg>
