<?xml version="1.0" encoding="utf-8"?>
<!-- Generator: Adobe Illustrator 13.0.0, SVG Export Plug-In . SVG Version: 6.00 Build 14948)  -->
<!DOCTYPE svg PUBLIC "-//W3C//DTD SVG 1.1//EN" "http://www.w3.org/Graphics/SVG/1.1/DTD/svg11.dtd">
<svg version="1.1" id="Layer_1" xmlns="http://www.w3.org/2000/svg" xmlns:xlink="http://www.w3.org/1999/xlink" x="0px" y="0px"
	 width="53.803px" height="53.803px" viewBox="0 0 53.803 53.803" enable-background="new 0 0 53.803 53.803" xml:space="preserve">
<g>
	<g>
		<path fill-rule="evenodd" clip-rule="evenodd" fill="#3BB0C9" d="M39.556,53.803c-3.47,0-7.955-2.312-11.101-4.255
			c-4.216-2.597-8.757-6.192-12.792-10.118l-0.017-0.017l-1.279-1.279c-3.925-4.029-7.521-8.575-10.118-12.792
			C2.312,22.196,0,17.717,0,14.247c0-3.717,2.657-7.659,3.799-9.179C4.688,3.876,7.801,0,10.448,0c1.087,0,2.256,0.708,3.793,2.306
			c1.361,1.411,2.663,3.163,3.519,4.387c1.147,1.642,2.212,3.36,2.992,4.837c1.263,2.394,1.411,3.42,1.411,3.986
			c0,1.136-0.593,2.125-1.768,2.932c-0.774,0.532-1.696,0.933-2.597,1.323c-0.604,0.264-1.57,0.681-1.938,0.972
			c0.127,0.544,0.692,1.856,2.208,4.085c1.411,2.075,3.239,4.326,4.892,6.017c1.696,1.653,3.942,3.481,6.017,4.893
			c2.229,1.515,3.541,2.075,4.085,2.207c0.291-0.368,0.708-1.335,0.972-1.938c0.39-0.895,0.79-1.822,1.322-2.597
			c0.808-1.17,1.796-1.768,2.933-1.768c0.565,0,1.592,0.147,3.985,1.411c1.477,0.779,3.195,1.844,4.837,2.991
			c1.225,0.857,2.976,2.158,4.387,3.52c1.592,1.537,2.306,2.706,2.306,3.794c0,2.646-3.876,5.759-5.067,6.648
			C47.215,51.146,43.272,53.803,39.556,53.803L39.556,53.803z M17.892,37.162c3.865,3.767,8.213,7.209,12.232,9.685
			c3.897,2.404,7.335,3.783,9.432,3.783c1.867,0,4.529-1.143,7.126-3.053c1.137-0.84,2.169-1.768,2.916-2.624
			c0.697-0.802,0.949-1.329,1.015-1.537c-0.269-0.577-1.866-2.383-5.594-4.958c-1.46-1.011-2.976-1.938-4.261-2.613
			c-1.613-0.846-2.283-0.993-2.438-1.016c-0.06,0.038-0.235,0.187-0.499,0.637c-0.297,0.5-0.588,1.164-0.862,1.807
			c-0.34,0.79-0.697,1.608-1.131,2.268c-0.703,1.07-1.57,1.613-2.574,1.613c-0.018,0-0.039,0-0.056,0
			c-0.488-0.011-1.971-0.044-6-2.788c-2.224-1.516-4.639-3.481-6.462-5.26l-0.027-0.027c-1.779-1.823-3.744-4.238-5.259-6.462
			c-2.745-4.029-2.778-5.518-2.789-6c-0.022-1.021,0.516-1.899,1.598-2.619c0.664-0.439,1.488-0.796,2.284-1.142
			c0.643-0.28,1.307-0.565,1.806-0.862c0.445-0.269,0.593-0.444,0.637-0.5c-0.022-0.154-0.17-0.824-1.016-2.438
			c-0.676-1.285-1.604-2.795-2.613-4.261c-2.575-3.728-4.381-5.325-4.958-5.594c-0.214,0.065-0.735,0.318-1.537,1.016
			c-0.857,0.741-1.79,1.778-2.625,2.915c-1.911,2.591-3.053,5.254-3.053,7.126c0,2.097,1.378,5.534,3.783,9.432
			c2.476,4.018,5.918,8.367,9.685,12.232L17.892,37.162z"/>
	</g>
</g>
</svg>
