<?xml version="1.0" encoding="utf-8"?>
<!-- Generator: Adobe Illustrator 13.0.0, SVG Export Plug-In . SVG Version: 6.00 Build 14948)  -->
<!DOCTYPE svg PUBLIC "-//W3C//DTD SVG 1.1//EN" "http://www.w3.org/Graphics/SVG/1.1/DTD/svg11.dtd">
<svg version="1.1" id="Layer_1" xmlns="http://www.w3.org/2000/svg" xmlns:xlink="http://www.w3.org/1999/xlink" x="0px" y="0px"
	 width="163.2px" height="180.874px" viewBox="0 0 163.2 180.874" enable-background="new 0 0 163.2 180.874" xml:space="preserve">
<g>
	<path fill="#000000" d="M130.421,0c9.05,0,17.245,3.708,23.177,9.7c5.932,5.993,9.602,14.272,9.602,23.414
		c0,9.143-3.67,17.421-9.602,23.414c-5.932,5.992-14.128,9.7-23.177,9.7c-9.05,0-17.245-3.708-23.178-9.7
		c-5.932-5.993-9.602-14.271-9.602-23.414c0-9.142,3.67-17.421,9.602-23.414C113.175,3.708,121.372,0,130.421,0L130.421,0z
		 M149.838,13.499c-4.97-5.021-11.835-8.126-19.417-8.126s-14.448,3.106-19.417,8.126c-4.97,5.021-8.044,11.956-8.044,19.615
		s3.074,14.595,8.044,19.616c4.97,5.02,11.835,8.126,19.417,8.126c7.581,0,14.447-3.106,19.417-8.126
		c4.969-5.021,8.044-11.957,8.044-19.616S154.807,18.52,149.838,13.499z"/>
	<path fill="#000000" d="M129.708,114.645c9.05,0,17.245,3.708,23.177,9.7c5.932,5.993,9.603,14.271,9.603,23.414
		s-3.671,17.422-9.603,23.414s-14.127,9.7-23.177,9.7s-17.245-3.708-23.177-9.7c-5.933-5.992-9.603-14.271-9.603-23.414
		s3.67-17.421,9.603-23.414C112.463,118.353,120.659,114.645,129.708,114.645L129.708,114.645z M149.125,128.144
		c-4.97-5.021-11.836-8.127-19.417-8.127c-7.582,0-14.447,3.106-19.417,8.127s-8.044,11.956-8.044,19.615s3.074,14.595,8.044,19.615
		s11.835,8.126,19.417,8.126c7.581,0,14.447-3.105,19.417-8.126c4.969-5.021,8.044-11.956,8.044-19.615
		S154.094,133.165,149.125,128.144z"/>
	<path fill="#000000" d="M32.779,55.07c9.05,0,17.245,3.708,23.177,9.7c5.932,5.993,9.602,14.272,9.602,23.414
		c0,9.143-3.67,17.422-9.602,23.414c-5.932,5.992-14.128,9.7-23.177,9.7c-9.05,0-17.245-3.708-23.177-9.7
		C3.67,105.606,0,97.327,0,88.184c0-9.142,3.67-17.421,9.602-23.414C15.534,58.778,23.729,55.07,32.779,55.07L32.779,55.07z
		 M52.196,68.569c-4.969-5.021-11.835-8.126-19.417-8.126s-14.447,3.106-19.417,8.126S5.318,80.525,5.318,88.184
		s3.074,14.595,8.044,19.615s11.835,8.126,19.417,8.126s14.447-3.105,19.417-8.126c4.97-5.021,8.044-11.956,8.044-19.615
		S57.166,73.589,52.196,68.569z"/>
	<polygon fill="#000000" points="54.639,70.941 99.781,44.612 103.081,50.414 57.939,76.743 	"/>
	<polygon fill="#000000" points="54.639,109.454 99.781,135.783 103.081,129.981 57.939,103.652 	"/>
</g>
</svg>
