<?xml version="1.0" encoding="utf-8"?>
<!-- Generator: Adobe Illustrator 13.0.0, SVG Export Plug-In . SVG Version: 6.00 Build 14948)  -->
<!DOCTYPE svg PUBLIC "-//W3C//DTD SVG 1.1//EN" "http://www.w3.org/Graphics/SVG/1.1/DTD/svg11.dtd">
<svg version="1.1" id="Layer_1" xmlns="http://www.w3.org/2000/svg" xmlns:xlink="http://www.w3.org/1999/xlink" x="0px" y="0px"
	 width="64.8px" height="65.09px" viewBox="0 0 64.8 65.09" enable-background="new 0 0 64.8 65.09" xml:space="preserve">
<g>
	<path fill-rule="evenodd" clip-rule="evenodd" fill="#969696" d="M55.359,9.459C49.269,3.362,41.169,0.003,32.534,0
		C14.752,0,0.275,14.47,0.269,32.253c-0.002,5.684,1.483,11.235,4.308,16.125L0,65.09l17.103-4.484
		c4.712,2.569,10.02,3.924,15.42,3.924l0.012,0.001l0,0c17.782,0,32.259-14.472,32.266-32.253
		C64.807,23.661,61.452,15.558,55.359,9.459L55.359,9.459L55.359,9.459L55.359,9.459z M52.695,12.139L52.695,12.139L52.695,12.139
		c5.386,5.39,8.352,12.554,8.345,20.169c-0.006,15.719-12.803,28.511-28.521,28.511l0,0l-0.01-0.001
		c-4.774,0-10.676-2.559-14.841-4.829L5.271,60.102l3.441-12.049c-2.497-4.322-4.718-10.741-4.716-15.766
		C4.003,16.567,16.8,3.776,32.519,3.776C40.151,3.779,47.311,6.748,52.695,12.139z"/>
	<path fill-rule="evenodd" clip-rule="evenodd" fill="#969696" d="M41.06,36.139c0.692,0.253,4.418,2.087,5.176,2.464
		c0.761,0.38,1.263,0.572,1.452,0.885c0.19,0.317,0.19,1.834-0.44,3.601c-0.632,1.772-3.66,3.387-5.115,3.601
		c-1.306,0.194-2.958,0.277-4.773-0.299c-1.1-0.35-2.511-0.815-4.32-1.595c-7.601-3.281-12.565-10.934-12.943-11.436
		c-0.378-0.507-3.094-4.107-3.094-7.837c0-3.728,1.958-5.561,2.652-6.319c0.695-0.758,1.515-0.948,2.021-0.948
		c0.504,0,1.009,0.007,1.453,0.028c0.463,0.021,1.09-0.177,1.704,1.3c0.632,1.516,2.146,5.244,2.335,5.624
		c0.19,0.378,0.317,0.822,0.063,1.326c-0.251,0.504-0.378,0.819-0.755,1.265c-0.38,0.441-0.795,0.988-1.138,1.326
		c-0.378,0.378-0.774,0.786-0.333,1.547c0.441,0.758,1.962,3.238,4.215,5.246c2.896,2.58,5.336,3.38,6.094,3.76
		c0.758,0.378,1.2,0.317,1.641-0.189c0.443-0.505,1.895-2.212,2.401-2.97C39.859,35.76,40.365,35.887,41.06,36.139z"/>
</g>
</svg>
