<?xml version="1.0" encoding="utf-8"?>
<!-- Generator: Adobe Illustrator 13.0.0, SVG Export Plug-In . SVG Version: 6.00 Build 14948)  -->
<!DOCTYPE svg PUBLIC "-//W3C//DTD SVG 1.1//EN" "http://www.w3.org/Graphics/SVG/1.1/DTD/svg11.dtd">
<svg version="1.1" id="Layer_1" xmlns="http://www.w3.org/2000/svg" xmlns:xlink="http://www.w3.org/1999/xlink" x="0px" y="0px"
	 width="124.731px" height="51.602px" viewBox="0 0 124.731 51.602" enable-background="new 0 0 124.731 51.602"
	 xml:space="preserve">
<g>
	<g>
		<g>
			<g>
				<g>
					<path fill-rule="evenodd" clip-rule="evenodd" fill="#FFFFFF" d="M123.239,26.763L89.912,8.496V36.13l-2.996,1.753V1.716
						l36.323,21.467V26.763L123.239,26.763z M109.491,26.346l-24.055,14.1V2.403L82.64,3.825l-0.1,43.008l30.444-18.464
						L109.491,26.346L109.491,26.346z M108.023,25.5l-16.632-9.661v19.408L108.023,25.5L108.023,25.5z M83.733,47.826l2.909,2.035
						l36.585-21.443L91.403,10.973v3.175l24.465,14.197L83.733,47.826L83.733,47.826z M124.731,29.252V22.35L86.916,0.012V0h-0.013
						L81.16,2.93l-0.111,44.797h-0.013l5.532,3.874L124.731,29.252z"/>
				</g>
				<g>
					<g>
						<g>
							<path fill-rule="evenodd" clip-rule="evenodd" fill="#FFFFFF" d="M53.206,29.436L53.206,29.436v9.976h-1.394V28.306
								c0-0.441-0.137-0.601-0.56-0.613h-0.361v-1.276h1.456c0.473,0,0.859,0.405,0.859,0.871v0.405V29.436z M53.206,29.436
								L53.206,29.436L53.206,29.436z"/>
						</g>
						<path fill="#FFFFFF" d="M54.811,39.411h1.393v-8.308h-1.393V39.411L54.811,39.411z M62.463,37.484
							c0.012,0.405,0.174,0.553,0.609,0.553h0.884v1.374h-2.028c-0.46,0-0.846-0.405-0.846-0.871V28.392
							c0-0.441-0.137-0.601-0.585-0.613h-3.845h-2.066v-1.362h7.043c0.46,0.013,0.834,0.417,0.834,0.871V37.484z"/>
						<path fill="#FFFFFF" d="M42.542,26.416c-0.473,0-0.883,0.368-0.883,0.835V37.46c0,0.43-0.162,0.564-0.585,0.577h-2.016v1.374
							h3.136c0.46-0.024,0.846-0.381,0.846-0.835V28.355c0.013-0.442,0.174-0.577,0.635-0.577h3.795h2.066v-1.362H42.542
							L42.542,26.416z M48.154,39.411V29.214h1.394v10.197H48.154z"/>
						<path fill-rule="evenodd" clip-rule="evenodd" fill="#FFFFFF" d="M26.192,26.416h-6.533c-0.46,0.013-0.871,0.381-0.871,0.835
							v12.16h1.394V28.38c0-0.454,0.162-0.602,0.634-0.602h4.28c0.423,0.013,0.561,0.185,0.561,0.626v11.007h1.394V27.275
							C27.038,26.821,26.665,26.416,26.192,26.416z"/>
						<g>
							<path fill-rule="evenodd" clip-rule="evenodd" fill="#FFFFFF" d="M14.098,29.436L14.098,29.436v1.877h-1.394v-3.007
								c0-0.441-0.137-0.601-0.56-0.613h-0.361v-1.276h1.456c0.473,0,0.858,0.405,0.858,0.871v0.405V29.436z M14.098,29.436
								L14.098,29.436L14.098,29.436z"/>
						</g>
						<g>
							<path fill-rule="evenodd" clip-rule="evenodd" fill="#FFFFFF" d="M17.419,29.436L17.419,29.436v1.877h-1.394v-3.007
								c0-0.441-0.136-0.601-0.56-0.613h-0.361v-1.276h1.456c0.473,0,0.858,0.405,0.858,0.871v0.405V29.436z M17.419,29.436
								L17.419,29.436L17.419,29.436z"/>
						</g>
						<path fill-rule="evenodd" clip-rule="evenodd" fill="#FFFFFF" d="M10.477,27.692v-1.276H8.623
							c-0.473,0-0.846,0.405-0.846,0.871v0.405L7.59,27.606c0,0-0.299-0.147-0.771-0.319c-0.473-0.184-1.12-0.393-1.83-0.539
							c-0.958-0.196-1.916-0.282-2.712-0.282c-0.784,0-1.418,0.086-1.767,0.245c-0.224,0.099-0.361,0.355-0.436,0.613
							C0,27.582,0,27.815,0,27.827v10.749c0.012,0.454,0.411,0.822,0.883,0.822h5.363v-1.374H1.991
							c-0.436-0.013-0.585-0.159-0.585-0.602V28.27c0-0.013,0-0.074,0.013-0.147c0.012-0.073,0.025-0.159,0.099-0.245
							c0.087-0.074,0.174-0.086,0.249-0.099c0.075-0.012,0.137-0.012,0.149-0.012c0.013,0,1.792,0,2.862,0.221
							c0.958,0.196,2.115,0.429,2.737,0.871c0.262,0.184,0.262,0.479,0.262,0.552v0.013v9.976H9.17V28.294
							c0-0.441,0.137-0.602,0.56-0.613h0.747V27.692z"/>
						<path fill="#FFFFFF" d="M28.631,39.411h1.394v-8.308h-1.394V39.411L28.631,39.411z M36.295,37.484
							c0.013,0.418,0.162,0.564,0.598,0.553h0.883v1.374h-2.028c-0.46,0-0.846-0.405-0.846-0.871V28.392
							c0-0.441-0.137-0.601-0.584-0.613h-3.833h-2.065v-1.362h7.042c0.46,0.013,0.833,0.417,0.833,0.871V37.484z"/>
						<path fill-rule="evenodd" clip-rule="evenodd" fill="#FFFFFF" d="M63.919,27.692v-1.276h1.854
							c0.474,0,0.847,0.405,0.847,0.871v0.405l0.187-0.086c0,0,0.299-0.147,0.771-0.319c0.473-0.184,1.12-0.393,1.829-0.539
							c0.958-0.196,1.916-0.282,2.713-0.282c0.783,0,1.418,0.086,1.767,0.245c0.224,0.099,0.361,0.355,0.436,0.613
							s0.074,0.491,0.074,0.503v10.749c-0.013,0.454-0.41,0.822-0.883,0.822h-5.363v-1.374h4.268
							c0.436-0.013,0.585-0.159,0.585-0.602V28.27c0-0.013,0-0.074-0.013-0.147c-0.012-0.073-0.024-0.159-0.1-0.245
							c-0.087-0.074-0.174-0.086-0.248-0.099c-0.075-0.012-0.137-0.012-0.149-0.012s-1.792,0-2.862,0.221
							c-0.958,0.196-2.115,0.429-2.737,0.871c-0.262,0.184-0.262,0.479-0.262,0.552v0.013v9.976h-1.393V28.294
							c0-0.441-0.137-0.602-0.561-0.613h-0.759V27.692z"/>
						<g>
							<path fill="#FFFFFF" d="M73.114,17.495c0,3.092-2.252,5.522-5.139,5.522s-5.127-2.43-5.127-5.522
								c0-3.006,2.253-5.35,5.14-5.35S73.114,14.489,73.114,17.495L73.114,17.495L73.114,17.495z M74.694,17.495
								c0-3.828-2.949-6.823-6.706-6.823c-3.771,0-6.708,2.995-6.708,6.823c0,3.927,2.95,6.995,6.708,6.995
								C71.745,24.49,74.694,21.41,74.694,17.495z"/>
						</g>
						<g>
							<path fill="#FFFFFF" d="M24.089,17.335h-3.322l-0.05-0.049V12.33l0.05-0.049h3.334c1.481,0,2.376,0.933,2.376,2.503
								C26.478,16.354,25.57,17.335,24.089,17.335L24.089,17.335L24.089,17.335z M28.345,24.256h0.685v-1.399h-0.374
								c-0.485,0-0.672-0.049-0.821-0.368l-1.854-3.73c-0.075-0.147-0.162-0.27-0.274-0.38l0.025-0.086
								c1.07-0.344,2.326-1.485,2.326-3.546c0-2.307-1.542-3.853-3.833-3.853h-6.208v1.398h1.145l0.05,0.049v11.927h1.518v-5.485
								l0.05-0.049h2.613c0.672,0,0.871,0.073,1.207,0.724l1.866,3.754C26.914,24.134,27.274,24.256,28.345,24.256z"/>
						</g>
						<path fill="#FFFFFF" d="M38.199,18.637l-0.05,0.061h-3.969l-0.05-0.061l1.617-4.467c0.1-0.27,0.224-0.675,0.361-1.178h0.1
							c0.075,0.283,0.224,0.798,0.361,1.178L38.199,18.637L38.199,18.637z M41.397,24.256h0.709v-1.399h-0.336
							c-0.336,0-0.448-0.049-0.547-0.331l-4.255-11.559l-0.025-0.073H35.4l-0.025,0.073l-4.243,11.559
							c-0.1,0.282-0.236,0.331-0.548,0.331h-0.36v1.399h0.722c0.971,0,1.269-0.221,1.618-1.166l1.107-2.994l0.05-0.037h4.915
							l0.05,0.037l1.082,2.994C40.103,24.048,40.414,24.256,41.397,24.256z"/>
						<path fill-rule="evenodd" clip-rule="evenodd" fill="#FFFFFF" d="M55.221,17.569c0-4.123-2.539-6.675-6.619-6.675h-5.313
							v1.398h1.145l0.049,0.049v9.681h1.519v-9.681l0.049-0.049h2.414c3.235,0,5.176,1.976,5.176,5.276
							c0,3.313-1.929,5.301-5.176,5.301h-5.077v1.399h5.201C52.696,24.256,55.221,21.692,55.221,17.569z"/>
					</g>
					<polygon fill-rule="evenodd" clip-rule="evenodd" fill="#FFFFFF" points="56.416,24.256 60.348,24.256 60.348,22.87 
						59.166,22.87 59.116,22.821 59.116,12.17 59.128,11.004 59.128,10.894 56.416,10.894 56.416,12.28 57.585,12.28 57.635,12.33 
						57.635,22.821 57.585,22.87 56.416,22.87 					"/>
				</g>
			</g>
		</g>
	</g>
</g>
</svg>
