<?xml version="1.0" encoding="UTF-8"?>
<svg width="14px" height="14px" viewBox="0 0 14 14" version="1.1" xmlns="http://www.w3.org/2000/svg" xmlns:xlink="http://www.w3.org/1999/xlink">
    <!-- Generator: Sketch 52.4 (67378) - http://www.bohemiancoding.com/sketch -->
    <title>lupa</title>
    <desc>Created with Sketch.</desc>
    <g id="Page-1" stroke="none" stroke-width="1" fill="none" fill-rule="evenodd">
        <g id="new_txt" transform="translate(-310.000000, -295.000000)" fill="#000000" fill-rule="nonzero">
            <g id="lupa" transform="translate(310.000000, 295.000000)">
                <path d="M12.4615385,14 C12.3846154,14 12.3846154,14 12.3076923,13.9226519 L9.61538462,11.2154696 L9.46153846,11.3701657 C8.46153846,11.9889503 7.30769231,12.3756906 6.15384615,12.3756906 C2.76923077,12.3756906 0,9.59116022 0,6.1878453 C0,2.78453039 2.76923077,0 6.15384615,0 C9.53846154,0 12.3076923,2.78453039 12.3076923,6.1878453 C12.3076923,7.3480663 12,8.50828729 11.3076923,9.51381215 L11.2307692,9.66850829 L13.9230769,12.3756906 C13.9230769,12.3756906 14,12.4530387 14,12.5303867 C14,12.6077348 14,12.6077348 13.9230769,12.6850829 L12.6153846,14 C12.5384615,13.9226519 12.4615385,14 12.4615385,14 Z M6.07692308,1.23756906 C3.38461538,1.23756906 1.23076923,3.40331492 1.23076923,6.11049724 C1.23076923,8.81767956 3.38461538,10.9834254 6.07692308,10.9834254 C8.76923077,10.9834254 10.9230769,8.81767956 10.9230769,6.11049724 C10.9230769,3.40331492 8.76923077,1.23756906 6.07692308,1.23756906 Z" id="Shape"></path>
            </g>
        </g>
    </g>
</svg>