<?xml version="1.0" encoding="UTF-8"?>
<svg width="46px" height="42px" viewBox="0 0 46 42" version="1.1" xmlns="http://www.w3.org/2000/svg" xmlns:xlink="http://www.w3.org/1999/xlink">
    <!-- Generator: Sketch 52.4 (67378) - http://www.bohemiancoding.com/sketch -->
    <title>VectorSmartObject_7533047e-2c72-46f3-b0c5-30d9844ee228-03 Copy</title>
    <desc>Created with Sketch.</desc>
    <g id="Page-1" stroke="none" stroke-width="1" fill="none" fill-rule="evenodd">
        <g id="homepage" transform="translate(-232.000000, -692.000000)" fill="#3AAFC8">
            <g id="VectorSmartObject_7533047e-2c72-46f3-b0c5-30d9844ee228-03-Copy" transform="translate(232.000000, 692.000000)">
                <path d="M1.77006954,42 C0.809015349,41.9988227 0.0239464196,41.2429555 0.000107039324,40.2958737 L0.000107039324,4.76118316 C-0.0050978543,4.29688876 0.179707943,3.85011356 0.512775273,3.5217878 C0.845842602,3.19346203 1.29906996,3.01128714 1.77006954,3.01641793 L9.87781701,3.01641793 L9.87781701,1.81350526 C9.87781698,1.19016067 10.2151699,0.614166496 10.7627982,0.302494191 C11.3104265,-0.00917811457 11.9851325,-0.00917811457 12.5327608,0.302494191 C13.0803891,0.614166496 13.417742,1.19016067 13.417742,1.81350526 L13.417742,3.01641793 L32.8598456,3.01641793 L32.8598456,1.81350526 C32.8342768,1.17425174 33.165664,0.572469077 33.7233943,0.24534389 C34.2811245,-0.0817812967 34.9757433,-0.0817812967 35.5334735,0.24534389 C36.0912038,0.572469077 36.422591,1.17425174 36.3970222,1.81350526 L36.3970222,3.01641793 L44.2326792,3.01641793 C44.7032047,3.01202064 45.1557181,3.1945194 45.4881862,3.52276418 C45.8206543,3.85100895 46.0050853,4.29736346 45.9998933,4.76118316 L45.9998933,40.2525255 C46.0050853,40.7163452 45.8206543,41.1626997 45.4881862,41.4909445 C45.1557181,41.8191893 44.7032047,42.001688 44.2326792,41.9972907 L1.77006954,42 Z M42.4462263,38.5511085 L42.4462263,13.7992838 L3.53728365,13.7992838 L3.53728365,38.5511085 L42.4462263,38.5511085 Z M42.4847038,10.3124626 L42.4847038,6.5194947 L36.3832803,6.5194947 L36.3832803,7.2184845 C36.4088491,7.85773802 36.0774618,8.45952068 35.5197316,8.78664587 C34.9620013,9.11377106 34.2673826,9.11377106 33.7096523,8.78664587 C33.1519221,8.45952068 32.8205349,7.85773802 32.8461037,7.2184845 L32.8461037,6.50594839 L13.417742,6.50594839 L13.417742,7.20493818 C13.417742,7.82828278 13.0803891,8.40427695 12.5327608,8.71594926 C11.9851325,9.02762156 11.3104265,9.02762156 10.7627982,8.71594926 C10.2151699,8.40427695 9.87781698,7.82828278 9.87781701,7.20493818 L9.87781701,6.50594839 L3.53728365,6.50594839 L3.53728365,10.2989163 L42.4847038,10.3124626 Z" id="Shape" fill-rule="nonzero"></path>
                <path d="M10.8522856,25 C9.8292965,25 9,24.1045695 9,23 C9,21.8954305 9.8292965,21 10.8522856,21 L35.1477145,21 C36.1707036,21.0000001 37,21.8954305 37,23 C37,24.1045695 36.1707036,24.9999999 35.1477145,25 L10.8522856,25 Z" id="Path"></path>
                <path d="M35.352666,21 L11.647334,21 C10.7375365,21 10,21.8954305 10,23 C10,24.1045695 10.7375365,25 11.647334,25 L35.352666,25 C36.2624635,25 37,24.1045695 37,23 C37,21.8954305 36.2624635,21 35.352666,21 Z" id="Path"></path>
                <path d="M23.2600963,28 L10.7399037,28 C9.77898141,28 9,28.8954305 9,30 C9,31.1045695 9.77898141,32 10.7399037,32 L23.2600963,32 C24.2210186,32 25,31.1045695 25,30 C25,28.8954305 24.2210186,28 23.2600963,28 Z" id="Path"></path>
            </g>
        </g>
    </g>
</svg>